<svg width="24" height="24" xmlns="http://www.w3.org/2000/svg">
  <defs>
    <filter id="a" width="45.1" height="55" x="-9.54" y="-10.44" filterUnits="userSpaceOnUse">
      <feOffset dy="1" result="FeOffset2675Out" in="SourceGraphic" />
      <feGaussianBlur stdDeviation="0.8 0.8" result="FeGaussianBlur2676Out" in="FeOffset2675Out" />
    </filter>
  </defs>
  <path d="M0 12a12 12 0 1 1 24 0 12 12 0 0 1-24 0z" fill="#25c96c" />
  <g>
    <path d="M20.1 12a8.1 8.1 0 1 1-16.2-.01 8.1 8.1 0 0 1 16.2 0" fill="#fff" />
    <g style="transform: translate(0px, 0px) scale(0.95);">
      <path d="M8.133 11.014c.14 0 .275-.04.385-.117a.493.493 0 0 0 .225-.403c0-.049-.046-.088-.103-.088-.056 0-.102.04-.102.088a.327.327 0 0 1-.15.267.455.455 0 0 1-.342.07c-.152-.027-.275-.133-.306-.262-.038-.157.046-.31.21-.383.177-.077.287-.224.287-.383l-.022-2.415h-.167l-.016 2.415c0 .093-.067.18-.175.227-.247.109-.375.34-.318.575.048.197.235.356.465.397a.744.744 0 0 0 .13.012" fill="#1a1818" />
      <path d="M15.682 10.204h.004c.048-.002.084-.036.082-.077l-.057-.988a.07.07 0 0 0-.034-.054.098.098 0 0 0-.07-.013l-.954.18v-.827a.07.07 0 0 0-.031-.056.096.096 0 0 0-.07-.015l-.985.16-.035-.851a.07.07 0 0 0-.03-.054.095.095 0 0 0-.068-.015l-1.017.134V6.91a.069.069 0 0 0-.03-.056.096.096 0 0 0-.07-.016l-.989.143v-.81c0-.04-.038-.073-.085-.073-.047 0-.085.033-.085.073v.896a.07.07 0 0 0 .03.056c.02.014.044.02.07.016l.989-.143v.817c0 .021.01.041.03.055.019.014.043.02.068.017l1.02-.135.035.855a.07.07 0 0 0 .032.054c.02.013.045.019.07.015l.98-.16v.829a.07.07 0 0 0 .032.057c.02.013.047.019.072.014l.96-.181.051.902c.002.039.04.069.085.069" fill="#ffce00" />
      <path d="M17.543 16.443a.106.106 0 0 0 .09-.046c.027-.043.008-.096-.042-.119l-1.171-.535.988-.847a.08.08 0 0 0 .029-.073.089.089 0 0 0-.052-.065l-1.079-.522.876-.778a.08.08 0 0 0 .028-.067.086.086 0 0 0-.04-.063l-.995-.643.765-.806c.035-.037.029-.092-.014-.122l-.876-.63.624-.877c.029-.042.013-.096-.035-.12-.048-.026-.111-.013-.141.029l-.67.942c-.026.037-.017.085.022.113l.867.621-.768.81a.078.078 0 0 0-.022.065.085.085 0 0 0 .04.06l.987.638-.887.788a.08.08 0 0 0-.028.073.09.09 0 0 0 .051.063l1.077.522-.99.848a.08.08 0 0 0-.029.075.09.09 0 0 0 .054.065l1.293.59c.015.008.032.011.048.011" fill="#ffce00" />
      <g transform="rotate(-29.549 9.44 5.8)">
        <path d="m7.989 5.652 2.897.188.007.11-2.897-.188z" fill="#1a1818" />
      </g>
      <path d="M8.071 6.803V6.48h.124v.322z" fill="#3d3d3d" />
      <path d="m10.945 6.752-.392-.896L7.788 6.91l.26.596z" fill="#e8b300" />
      <path d="M10.685 5.89v-.723h.123v.723z" fill="#3d3d3d" />
      <g transform="rotate(-51.765 14.23 7.505)">
        <path d="m13.861 3.319.112.009.627 8.365-.112-.009z" fill="#1a1818" />
      </g>
      <path d="m18.336 16.58.122-.009-.683-6.73-.123.008z" fill="#1a1818" />
      <path d="M16.688 9.93v-.175h.898v.176z" fill="#3d3d3d" />
      <g transform="rotate(-7.686 17.255 13.31)">
        <path d="m16.877 10.023.496.005.256 6.567-.496-.005z" fill="#e8b300" />
      </g>
      <g transform="rotate(-3.56 15.975 13.335)">
        <path d="m15.697 10.083.447.002.107 6.505-.447-.002z" fill="#e8b300" />
      </g>
      <g transform="rotate(-48 13.855 7.92)">
        <path d="m13.14 4.6.417.015 1.008 6.62-.417-.015z" fill="#e8b300" />
      </g>
      <g transform="rotate(-50 12.94 8.48)">
        <path d="m12.293 5.19.386.017.915 6.564-.385-.017z" fill="#e8b300" />
      </g>
      <path d="M15.438 9.844c0 .346.329.627.734.627.405 0 .733-.28.733-.627 0-.346-.328-.627-.733-.627-.405 0-.734.28-.734.627" fill="#313133" />
      <path d="M15.839 9.844c0 .157.15.285.334.285.185 0 .334-.128.334-.285 0-.158-.15-.286-.334-.286-.185 0-.334.128-.334.286" fill="#3d3d3d" />
      <path d="M10.125 6.239c0 .293.279.531.622.531.343 0 .622-.238.622-.531 0-.294-.279-.531-.622-.531-.343 0-.622.237-.622.53" fill="#313133" />
      <path d="M10.463 6.24c0 .133.127.242.284.242.156 0 .283-.109.283-.242 0-.134-.127-.242-.283-.242-.157 0-.284.108-.284.242" fill="#3d3d3d" />
      <path d="M7.634 7.138c0 .243.23.44.515.44.285 0 .516-.197.516-.44 0-.244-.23-.44-.516-.44-.284 0-.515.196-.515.44" fill="#313133" />
      <path d="M7.94 7.138c0 .098.094.178.21.178.114 0 .208-.08.208-.178 0-.099-.094-.178-.209-.178-.115 0-.209.08-.209.178" fill="#3d3d3d" />
      <path d="M10.523 5.168c0 .106.1.193.226.193.125 0 .226-.087.226-.193 0-.107-.101-.193-.226-.193s-.226.086-.226.193" fill="#313133" />
      <path d="M7.977 6.433c0 .073.07.133.156.133.087 0 .157-.06.157-.133 0-.074-.07-.134-.156-.134-.087 0-.157.06-.157.134" fill="#313133" />
      <path d="M17.29 9.842c0 .2.19.362.424.362.234 0 .423-.162.423-.362 0-.2-.19-.362-.423-.362-.234 0-.423.162-.423.362" fill="#313133" />
      <path d="M17.425 9.844c0 .137.13.248.29.248.16 0 .29-.11.29-.248 0-.136-.13-.247-.29-.247-.16 0-.29.11-.29.247" fill="#3d3d3d" />
      <path d="m8.158 9.482.567-.485a.025.025 0 0 0 0-.04l-.567-.485a.037.037 0 0 0-.046 0l-.568.485a.025.025 0 0 0 0 .04l.568.485a.036.036 0 0 0 .046 0" fill="#a21b25" />
      <path d="m8.158 9.25.296-.253a.025.025 0 0 0 0-.04l-.296-.252a.037.037 0 0 0-.046 0l-.296.252a.025.025 0 0 0 0 .04l.296.253c.013.01.033.01.046 0" fill="#f0f0f0" />
      <path d="M15.505 15.202h-1.49c-.13 0-.238.086-.247.196l-.149 1.925h2.206l-.074-1.918c-.005-.113-.113-.203-.246-.203" fill="#3c6d83" />
      <path d="M14.169 17.841v-.283h1.97v.283z" fill="#272626" />
      <path d="M17.723 18.786h-5.232c-.323 0-.585-.224-.585-.5s.262-.5.585-.5h5.232c.323 0 .585.224.585.5s-.262.5-.585.5" fill="#272626" />
      <path d="M12.49 17.84c-.288 0-.522.2-.522.447s.234.448.523.448h5.233c.288 0 .522-.2.522-.447s-.234-.448-.522-.448zm5.234 1H12.49c-.356 0-.646-.248-.646-.552 0-.305.29-.553.646-.553h5.233c.356 0 .645.248.645.552 0 .305-.29.553-.645.553" fill="#1d1c1c" />
      <path d="M13.386 18.637h-.268c-.018 0-.033-.012-.033-.028v-.19h.333v.19c0 .016-.014.028-.032.028" fill="#6d6d6e" />
      <path d="M13.916 18.637h-.267c-.018 0-.033-.012-.033-.028v-.19h.333v.19c0 .016-.014.028-.033.028" fill="#6d6d6e" />
      <path d="M14.445 18.637h-.268c-.018 0-.033-.012-.033-.028v-.19h.334v.19c0 .016-.015.028-.033.028" fill="#6d6d6e" />
      <path d="M14.975 18.637h-.267c-.019 0-.033-.012-.033-.028v-.19h.333v.19c0 .016-.015.028-.033.028" fill="#6d6d6e" />
      <path d="M15.508 18.637h-.268c-.018 0-.033-.012-.033-.028v-.19h.333v.19c0 .016-.014.028-.032.028" fill="#6d6d6e" />
      <path d="M16.036 18.637h-.268c-.018 0-.033-.012-.033-.028v-.19h.333v.19c0 .016-.014.028-.032.028" fill="#6d6d6e" />
      <path d="M16.566 18.637h-.268c-.018 0-.032-.012-.032-.028v-.19h.333v.19c0 .016-.015.028-.033.028" fill="#6d6d6e" />
      <path d="M17.096 18.637h-.268c-.018 0-.033-.012-.033-.028v-.19h.333v.19c0 .016-.014.028-.032.028" fill="#6d6d6e" />
      <path d="M14.445 17.843h-.268c-.018 0-.033.012-.033.027v.261h.334v-.26c0-.016-.015-.028-.033-.028" fill="#6d6d6e" />
      <path d="M16.036 17.843h-.268c-.018 0-.033.012-.033.027v.261h.333v-.26c0-.016-.014-.028-.032-.028" fill="#6d6d6e" />
      <path d="M12.787 18.472V18.1h4.637v.372z" fill="#545454" />
      <g>
        <path d="M18.023 18.287c0 .173-.165.313-.367.313-.203 0-.367-.14-.367-.313s.164-.314.367-.314c.202 0 .367.14.367.314" fill="#3d3d3d" />
      </g>
      <g>
        <path d="M17.873 18.286c0 .102-.098.186-.218.186s-.218-.084-.218-.186c0-.103.098-.186.218-.186s.218.083.218.186" fill="#545454" />
      </g>
      <g>
        <path d="M12.923 18.287c0 .173-.164.313-.367.313-.202 0-.367-.14-.367-.313s.165-.314.367-.314c.203 0 .367.14.367.314" fill="#3d3d3d" />
      </g>
      <g>
        <path d="M12.776 18.286c0 .102-.097.186-.217.186s-.218-.084-.218-.186c0-.103.098-.186.218-.186s.217.083.217.186" fill="#545454" />
      </g>
      <g>
        <path d="m15.826 17.323-.04-1.02-2.121.444-.045.576z" fill="#1a1818" />
      </g>
      <g>
        <path d="M15.166 15.309v-.35h.257v.35z" fill="#272626" />
      </g>
      <g>
        <path d="M14.785 15.245v-.351h.212v.35z" fill="#272626" />
      </g>
      <g>
        <path d="M15.45 14.764h-.31c-.019 0-.033.013-.033.028v.165h.376v-.165c0-.015-.015-.028-.033-.028" fill="#3d3d3d" />
      </g>
      <g>
        <path d="M18.8 17.378h-3.817v-1.027c0-.046.044-.083.098-.083h3.62c.055 0 .099.037.099.083z" fill="#ffce00" />
      </g>
      <g>
        <path d="M16.859 17.059v-.62h1.45v.62z" fill="#1a1818" />
      </g>
      <g>
        <path d="M15.502 15.202h-1.49c-.13 0-.238.086-.246.196l-.002.018h1.985v-.011c-.005-.113-.114-.203-.247-.203" fill="#1a1818" />
      </g>
      <g>
        <path d="m13.783 16.722.427-1.306h.13l-.417 1.277z" fill="#508196" />
      </g>
      <g>
        <path d="m14.417 16.59-.316.065.405-1.24h.294z" fill="#508196" />
      </g>
      <g>
        <path d="M17.183 16.781c-.05-.002-.089-.038-.087-.08.002-.043.045-.077.095-.075.05.002.089.038.087.081-.002.043-.045.076-.095.074m.17-.071a.124.124 0 0 0-.006-.038l.068-.03-.039-.063-.067.03a.172.172 0 0 0-.074-.04l.003-.065-.083-.003-.003.065a.177.177 0 0 0-.078.035l-.064-.035-.044.06.064.035a.123.123 0 0 0-.008.037c0 .013.001.025.005.038l-.068.03.039.063.067-.03c.02.018.045.032.074.04l-.003.064.083.003.003-.065a.178.178 0 0 0 .078-.034l.064.034.044-.06-.064-.034a.118.118 0 0 0 .008-.037" fill="#6d6d6e" />
      </g>
      <g>
        <path d="M17.638 16.863a.086.086 0 0 1-.108.01c-.033-.024-.038-.065-.01-.093a.086.086 0 0 1 .107-.009c.033.023.038.064.01.092m.03-.133a.139.139 0 0 0-.032-.017l.01-.054-.069-.01-.01.054a.152.152 0 0 0-.07.023l-.049-.035-.044.047.05.034a.1.1 0 0 0-.013.062l-.06.02.025.056.06-.02a.132.132 0 0 0 .025.024c.01.007.02.012.032.016l-.01.054.069.01.01-.053a.158.158 0 0 0 .07-.023l.049.035.044-.047-.05-.034a.104.104 0 0 0 .013-.063l.06-.02-.025-.055-.06.02a.118.118 0 0 0-.025-.024" fill="#6d6d6e" />
      </g>
      <g>
        <path d="M17.63 16.82c0 .026-.024.047-.054.047s-.054-.021-.054-.047c0-.025.024-.046.054-.046s.054.02.054.046" fill="#545454" />
      </g>
      <g>
        <path d="M17.251 16.702c0 .031-.03.056-.065.056-.036 0-.066-.025-.066-.056 0-.03.03-.055.066-.055.036 0 .065.025.065.055" fill="#545454" />
      </g>
      <g>
        <path d="M18.735 17.638h-5.05c-.036 0-.066-.025-.066-.056v-.26H18.8v.26c0 .03-.03.056-.065.056" fill="#e5aa0b" />
      </g>
      <g>
        <path d="M13.784 17.55h-.166c-.035 0-.065-.026-.065-.056v-.053c0-.03.03-.055.065-.055h.166c.018 0 .033.012.033.028v.107c0 .016-.015.028-.033.028" fill="#a21b25" />
      </g>
      <g>
        <path d="M18.635 17.55h.166c.036 0 .065-.026.065-.056v-.053c0-.03-.03-.055-.065-.055h-.166c-.018 0-.033.012-.033.028v.107c0 .016.015.028.033.028" fill="#ec4219" />
      </g>
      <g>
        <path d="m6.9 12.493-.098-.053 1.182-1.175a.198.198 0 0 1 .16-.076c.066 0 .126.029.161.076l1.182 1.175-.098.053-1.182-1.175a.077.077 0 0 0-.063-.03.077.077 0 0 0-.062.03z" fill="#1a1818" />
      </g>
      <g>
        <path d="M8.957 14.107H7.332c-.069 0-.128-.041-.143-.098l-.353-1.43h2.616L9.1 14.01c-.014.057-.074.098-.142.098" fill="#e5aa0b" />
      </g>
      <g>
        <path d="M7.895 13.941v-1.145h.502v1.145z" fill="#ffce00" />
      </g>
      <g>
        <path d="M8.926 13.941h-.26v-1.145h.502z" fill="#ffce00" />
      </g>
      <g>
        <path d="M7.365 13.941h.26v-1.145h-.502z" fill="#ffce00" />
      </g>
      <g>
        <path d="M9.513 12.432H6.776c-.054 0-.098.038-.098.084v.07c0 .046.044.084.098.084h2.737c.055 0 .098-.038.098-.084v-.07c0-.046-.043-.084-.098-.084" fill="#ffce00" />
      </g>
      <g>
        <path d="M8.225 11.555h-.158c-.054 0-.098-.038-.098-.084v-.689c0-.046.044-.083.098-.083h.158c.054 0 .098.037.098.083v.69c0 .045-.044.083-.098.083" fill="#e5aa0b" />
      </g>
      <g>
        <path d="M7.901 19.075v-2.33h.261v2.33z" fill="#3d3d3d" />
      </g>
      <g>
        <path d="M10.173 19.075v-2.33h.262v2.33z" fill="#3d3d3d" />
      </g>
      <g>
        <path d="M7.651 18.426v-1.44h3.034v1.44z" fill="#f0f0f0" />
      </g>
      <g>
        <path d="M10.684 18.427h-.512l-.472-1.44h.512z" fill="#a21b25" />
      </g>
      <g>
        <path d="M9.659 18.427h-.512l-.472-1.44h.512z" fill="#a21b25" />
      </g>
      <g>
        <path d="M8.635 18.427h-.512l-.472-1.44h.512z" fill="#a21b25" />
      </g>
      <g>
        <path d="M8.03 16.5c-.108 0-.195.076-.195.168v.078h.391v-.078c0-.092-.087-.167-.196-.167" fill="#e5aa0b" />
      </g>
      <g>
        <path d="M10.3 16.5c-.108 0-.195.076-.195.168v.078h.391v-.078c0-.092-.087-.167-.195-.167" fill="#e5aa0b" />
      </g>
    </g>
  </g>
</svg>