<svg width="24" height="24" xmlns="http://www.w3.org/2000/svg">
  <defs>
    <clipPath id="b">
      <path d="M13.05 4.297a8.365 8.365 0 1 0 0 16.73 8.365 8.365 0 0 0 0-16.73z" />
    </clipPath>
    <clipPath id="c">
      <path d="M4.685 21.027V4.297h17.266v16.73z" />
    </clipPath>
    <filter id="a" width="45.09" height="55" x="-9.53" y="-10.44" filterUnits="userSpaceOnUse">
      <feOffset dy="1" result="FeOffset3586Out" in="SourceGraphic" />
      <feGaussianBlur stdDeviation="0.8 0.8" result="FeGaussianBlur3587Out" in="FeOffset3586Out" />
    </filter>
  </defs>
  <path d="M0 12a12 12 0 1 1 24 0 12 12 0 0 1-24 0z" fill="#01cdde" />
  <g>
    <path d="M20.1 12a8.1 8.1 0 1 1-16.2-.01 8.1 8.1 0 0 1 16.2 0" fill="#fff" />
  </g>
  <g style="transform: scale(0.94);">
    <g>
      <g clip-path="url(#b)">
        <path d="m5.094 9.653-.213-.608 4.554-1.456.126.36z" fill="#3a3c40" />
      </g>
      <g clip-path="url(#b)">
        <path d="M11.347 19.858v-5.88H21.95v5.88z" fill="#e82517" />
      </g>
      <g clip-path="url(#b)">
        <path d="M20.308 19.858v-5.88h.297v5.88z" fill="#ae141b" />
      </g>
      <g clip-path="url(#b)">
        <path d="M18.404 19.858v-5.88h.297v5.88z" fill="#ae141b" />
      </g>
      <g clip-path="url(#b)">
        <path d="M16.5 19.858v-5.88h.297v5.88z" fill="#ae141b" />
      </g>
      <g clip-path="url(#b)">
        <path d="M14.596 19.858v-5.88h.297v5.88z" fill="#ae141b" />
      </g>
      <g clip-path="url(#b)">
        <path d="M12.692 19.858v-5.88h.298v5.88z" fill="#ae141b" />
      </g>
      <g clip-path="url(#b)">
        <path d="M20.46 16.921c0 1.215-1.775 2.199-3.964 2.199s-3.963-.984-3.963-2.199c0-1.214 1.774-2.199 3.963-2.199s3.963.985 3.963 2.2" fill="#3b3d3c" />
      </g>
      <g clip-path="url(#b)">
        <path d="M19.928 16.688v.466h-.353c-.166.55-.914 1.005-1.921 1.205-.239.048-.491.08-.754.097v.397h-.709v-.39a5.853 5.853 0 0 1-.851-.104c-1.008-.2-1.755-.655-1.923-1.205h-.352v-.466h.352c.167-.55.915-1.004 1.923-1.205.238-.047.49-.08.753-.097v-.397h.709v.391c.298.015.584.05.852.104 1.007.2 1.755.655 1.921 1.204z" fill="#121313" />
      </g>
      <g clip-path="url(#b)">
        <path d="M19.92 16.577h-.354c-.21-.695-1.352-1.238-2.773-1.307v-.392h-.709v.397c-1.375.088-2.469.623-2.676 1.302h-.352v.467h.352c.212.695 1.353 1.239 2.774 1.307v.392h.709v-.397c1.375-.088 2.47-.623 2.675-1.302h.353z" fill="#b1aba4" />
      </g>
      <g clip-path="url(#b)">
        <path d="M19.92 16.798h-.354c-.21-.695-1.352-1.238-2.773-1.307v-.392h-.709v.397c-1.375.089-2.469.623-2.676 1.302h-.352v.467h.352c.212.695 1.353 1.239 2.774 1.308v.39h.709v-.396c1.375-.088 2.47-.623 2.675-1.302h.353z" fill="#7f7e7e" />
      </g>
      <g clip-path="url(#b)">
        <path d="M19.92 16.577h-.354c-.21-.695-1.352-1.238-2.773-1.307v-.392h-.709v.397c-1.375.088-2.469.623-2.676 1.302h-.352v.467h.352c.212.695 1.353 1.239 2.774 1.307v.392h.709v-.397c1.375-.088 2.47-.623 2.675-1.302h.353z" fill="#b1aba4" />
      </g>
      <g clip-path="url(#b)">
        <path d="M16.487 17.6c-1.303 0-2.178-.454-2.178-.879 0-.424.875-.88 2.178-.88 1.304 0 2.179.456 2.179.88 0 .425-.875.88-2.179.88m0-1.982c-1.347 0-2.401.484-2.401 1.102 0 .619 1.054 1.103 2.401 1.103 1.347 0 2.402-.484 2.402-1.103 0-.618-1.055-1.102-2.402-1.102" fill="#7f7e7e" />
      </g>
      <g clip-path="url(#b)">
        <path d="M15.763 12.838c.403.801 2.155 3.825 2.155 3.825.023.046-1.435-3.315-1.838-4.117-.403-.801-.802-1.387-.89-1.306-.086.08.17.796.573 1.598" fill="#fff" />
      </g>
      <g clip-path="url(#b)">
        <path d="M15.574 13.038c.4.804 2.184 3.801 2.184 3.801.023.046-1.38-3.364-1.78-4.169-.4-.804-.815-1.376-.926-1.274-.111.102.123.837.522 1.642" fill="#fff" />
      </g>
      <g clip-path="url(#b)">
        <path d="M15.652 12.968c.444.878 2.333 4.227 2.333 4.227.025.05-1.617-3.6-2.06-4.478-.444-.879-.865-1.536-.94-1.466-.075.07.224.838.667 1.717" fill="#fff" />
      </g>
      <g clip-path="url(#b)">
        <path d="m10.395 5.834-.131-.122-1.351.889c.225.868.537 1.244 1.05 1.625l1.395-.868-.126-.74z" fill="#fcaa79" />
      </g>
      <g clip-path="url(#b)">
        <path d="m8.227 5.534 1.387-.848.772 1.221-1.388.849z" fill="#fcaa79" />
      </g>
      <g clip-path="url(#b)">
        <path d="m11.736 8.064.512-.337.111.17-.682.449-.448-.682.17-.112z" fill="#3a3c40" />
      </g>
      <g clip-path="url(#b)">
        <path d="M11.148 6.093a.278.278 0 0 0-.08.384l1.638 2.489a.277.277 0 0 0 .385.079l.819-.539a.278.278 0 0 0 .08-.384l-1.638-2.489a.277.277 0 0 0-.384-.08z" fill="#3a3c40" />
      </g>
      <g clip-path="url(#b)">
        <path d="m11.227 7.07-2.748.873.43.654 3.335-1.21-.58-.88-.697.167z" fill="#3a3c40" />
      </g>
      <g transform="rotate(-33.345 13.43 8.805)" clip-path="url(#b)">
        <path d="M11.939 9.459V8.145h2.979V9.46z" fill="#ffba00" />
      </g>
      <g clip-path="url(#b)">
        <path d="m14.455 9.643-.66.435-1.018-.061 2.025-1.332z" fill="#3a3c40" />
      </g>
      <g clip-path="url(#b)">
        <path d="m14.11 10.203-.316-.125.661-.435-.01.339z" fill="#3a3c40" />
      </g>
      <g clip-path="url(#b)">
        <path d="m14.918 10.7.315.125-.661.435.01-.338z" fill="#3a3c40" />
      </g>
      <g transform="rotate(-33.339 14.745 10.8)" clip-path="url(#b)">
        <path d="M14.658 11.655V9.953h.175v1.702z" fill="#3a3c40" />
      </g>
      <g transform="rotate(-33.285 15.13 11.395)" clip-path="url(#b)">
        <path d="M14.76 11.616v-.45h.744v.45z" fill="#3a3c40" />
      </g>
      <g clip-path="url(#b)">
        <path d="m8.157 7.453.322.49 2.748-.874-.26-.395z" fill="#eb3b1e" />
      </g>
      <g clip-path="url(#b)">
        <path d="M11.266 7.566c-.107-.162.296-.425.402-.264l.338.514c.105.159-.294.427-.402.264z" fill="#f39661" />
      </g>
      <g clip-path="url(#b)">
        <path d="M9.889 7.562c-.146-.222.244-.475.388-.256l.46.7c.143.217-.242.478-.388.255z" fill="#f39661" />
      </g>
      <g clip-path="url(#b)">
        <path d="M9.5 7.741c-.133-.201.222-.432.354-.232l.371.564c.13.198-.22.436-.353.233z" fill="#f39661" />
      </g>
      <g clip-path="url(#b)">
        <path d="M10.331 7.389c-.146-.222.244-.475.388-.256l.46.7c.143.217-.241.478-.388.255z" fill="#f39661" />
      </g>
      <g clip-path="url(#b)">
        <path d="m10.56 6.084.87.34c.23.09.392.299.423.543l.065.52a.318.318 0 0 1-.14.304l-.504.331a.143.143 0 0 1-.21-.063c-.158-.374.302-.589.302-.589l-.032-.373a1.242 1.242 0 0 1-.443.137c-.741.084-1.264-.423-.76-.883.181-.167.422-.27.429-.267" fill="#fcaa79" />
      </g>
    </g>
    <g>
      <g clip-path="url(#c)">
        <path d="M17.394 16.855c.045.02.258.016.258.016.003.002-.142-.159-.187-.179a.089.089 0 0 0-.071.163" fill="#4a97d1" />
      </g>
      <g clip-path="url(#c)">
        <path d="M18.172 16.234a1.318 1.318 0 0 0-.124.226c-.002.002.204-.06.241-.093a.089.089 0 1 0-.117-.133" fill="#4a97d1" />
      </g>
      <g clip-path="url(#c)">
        <path d="M18.135 16.473a.959.959 0 0 0-.146.121.887.887 0 0 0 .19.002.065.065 0 0 0 .039-.083.065.065 0 0 0-.083-.04" fill="#4a97d1" />
      </g>
      <g clip-path="url(#c)">
        <path d="M16.685 14.383c.03-.01.168.009.168.009a.707.707 0 0 1-.125.114c-.03.01-.063-.009-.075-.043-.012-.033.002-.07.032-.08" fill="#4a97d1" />
      </g>
      <g clip-path="url(#c)">
        <path d="M17.634 17.228c0 .082-.132.149-.294.149-.163 0-.295-.067-.295-.149 0-.082.132-.148.295-.148.162 0 .294.066.294.148" fill="#4a97d1" />
      </g>
      <g clip-path="url(#c)">
        <path d="M18.52 16.833c0 .082-.132.148-.295.148-.162 0-.294-.066-.294-.148 0-.082.132-.148.294-.148.163 0 .295.066.295.148" fill="#4a97d1" />
      </g>
    </g>
  </g>
</svg>