<svg width="24" height="24" xmlns="http://www.w3.org/2000/svg">
  <path d="M0 12a12 12 0 1 1 24 0 12 12 0 0 1-24 0z" fill="#d13b3b" />
  <g>
    <path d="M20.1 12a8.1 8.1 0 1 1-16.2-.01 8.1 8.1 0 0 1 16.2 0" fill="#fff" />
    <path d="m9.3 9.67 5.97-.04s.18.1.26.27v5.97s-.06.37-.33.46H9.27s-.13.02-.18-.22c-.06-.24 0-5.62 0-5.62s-.02-.62.22-.82" />
    <path d="M15.4 9.74s-.04-.14.07.05c.57.96 2.43 4.22 2.33 4.33 0 0 .52 1.82-.93 2.08l-1.67.13-1.55-3.78z" />
    <path d="m15.1 14.87-.13-1.85s.12-.05.21.6c0 0 .3.86-.08 1.25" fill="#0063b0" />
    <path d="m15.1 14.87-.13-1.85s.12-.05.21.6c0 0 .3.86-.08 1.25z" fill="none" stroke="#0063b0" stroke-miterlimit="20" stroke-width=".21" />
    <path d="M9.3 9.67s-3.9 4.84-3.78 4.97c0 0-.48 1.81.84 2.07l.98.04 1.94-3.68z" />
    <path d="m7.62 14.08 4.2.87-1.22 2.17L7.25 17z" fill="#ffa02f" />
    <path d="M12.22 14.27s.26-.54.63-.67c0 0 .23-.11.38 0 0 0 .49.1.43.54 0 0-.03.2-.1.35l-2.32 3.65-1.1-.75z" fill="#eb3e16" />
    <path d="M13.34 13.44s.26-.45.55-.7c0 0 .27-.23.74 0l.54.42-.18.26s-.51-.38-.58-.4c0 0-.14-.07-.29-.02 0 0-.3.14-.4.31l-.23.4-.24-.1z" fill="#a9261d" />
    <path d="M15.04 12.92s.36-.3.92-.32c0 0 1.54.1 3.2 1.87l-1-.13 1.61 1.61s-1.81-.32-2.15-.52l.63.84s-3.23-.58-3.65-2.47c0 0 .09-.62.44-.88" fill="#fff" />
    <path d="M15.03 13.1s.25-.2.62-.2c0 0 1.04.07 2.16 1.25l-.68-.08 1.1 1.08s-1.23-.21-1.45-.35l.42.57s-2.18-.4-2.46-1.67c0 0 .06-.41.3-.6" fill="#ffab06" />
    <g>
      <path d="m10.36 17.52.66.45s-.37.6-.5.55c0 0-.26-.13-.46-.32 0 0-.03-.3.3-.68" fill="#2c414a" />
    </g>
    <g>
      <path d="M10.31 19.76s-.2-.11-.32-.41c0 0 .13-.49.4-.75l.1-.12-.39-.24s-.38.62-.46.86c0 0-.17.36.04.62l.37.38z" fill="#1d282f" />
    </g>
    <g>
      <path d="M8.7 8.05V6.5h7.23v1.55z" fill="#181919" />
    </g>
    <g>
      <path d="M10 4.78s0-.07.25-.12h4.2s.62.07.85.76V9.2s-.71 3.28-2.96 3.26c0 0-1.95.46-2.96-3.07L9.3 5.58s.18-.62.71-.8" />
    </g>
    <g>
      <path d="M10.47 5.54s0-.05.2-.09h3.37s.5.06.68.6V9.1s-.57 2.64-2.37 2.62c0 0-1.57.37-2.38-2.47L9.9 6.2s.15-.5.57-.65" fill="#fcab66" />
    </g>
    <g>
      <path d="M10.62 8.7V6.86h3.45v1.82z" fill="#04223f" />
    </g>
    <g>
      <path d="m10.6 8.69 3.47-1.82v.93l-1.8.87z" fill="#11465a" />
    </g>
    <g>
      <path d="M12.02 14.42s.57-.12.74-.09c0 0 .4.12.41.35 0 0 .07.18-.1.19l-.54.06-.19-.03-.39-.2-.25-.17z" fill="#f27f0e" />
    </g>
    <g>
      <path d="m7.45 15.32 3.6.42-.4 1.4-3.4-.13z" fill="#fc842c" />
    </g>
    <g>
      <path d="m9.9 16.09.86-1.25s.22-.43.77-.34c0 0 .65.15.81.32 0 0 .56.38.63.48.07.09.07.58-.3.45l-.74-.43s-.14.02-.13.1l.92.77s.1.54-.43.33l-.81-.52s-.2.1-.15.17l.9.66s.11.36-.22.45c0 0-.13.06-.23-.02l-.77-.53s-.28-.04-.15.19l.72.53s.13.3-.03.44c0 0-.16.26-.48-.06 0 0-1.05-.6-1.2-1.1 0 0-.14-.22.03-.64" fill="#ffab06" />
    </g>
  </g>
</svg>