<svg width="24" height="24" xmlns="http://www.w3.org/2000/svg">
  <defs>
    <clipPath id="b">
      <path d="M13.817 7.3v-.554h.728V7.3z" />
    </clipPath>
    <clipPath id="c">
      <path d="M14.488 7.311v-.565h.421v.565z" />
    </clipPath>
    <filter id="a" width="45.1" height="55" x="-10" y="-11" filterUnits="userSpaceOnUse">
      <feOffset dy="1" result="FeOffset4407Out" in="SourceGraphic" />
      <feGaussianBlur stdDeviation="0.8 0.8" result="FeGaussianBlur4408Out" in="FeOffset4407Out" />
    </filter>
  </defs>
  <path d="M0 12a12 12 0 1 1 24 0 12 12 0 0 1-24 0z" fill="#f77b2c" />
  <g>
    <path d="M20.1 12a8.1 8.1 0 1 1-16.2-.01 8.1 8.1 0 0 1 16.2 0" fill="#fff" />
  </g>
  <g>
    <path d="M15.094 12.592a.186.186 0 0 1-.186-.186v-1.67a.187.187 0 0 1 .373 0v1.67a.186.186 0 0 1-.187.186" fill="#eb3917" />
    <path d="M15.094 12.592a.186.186 0 0 1-.186-.186v-1.67a.187.187 0 0 1 .373 0v1.67a.186.186 0 0 1-.187.186" fill="#eb3917" />
    <path d="M19.92 14.981c-1.273 2.77-4.93 5.097-7.257 4.986l-.056-4.986z" fill="#be1212" />
    <g transform="rotate(-67.714 15.79 6.575)">
      <path d="M14.11 6.753V6.4h3.361v.352z" fill="#be1212" />
    </g>
    <path d="M13.14 11.16a.236.236 0 0 1-.473 0v-.378a.236.236 0 0 1 .472 0z" fill="#ffe4ba" />
    <path d="M15.998 11.16a.236.236 0 0 1-.472 0v-.378a.236.236 0 0 1 .472 0z" fill="#ffe4ba" />
    <path d="M15.56 7.975c-.208-.137-.676-.233-1.22-.233-.54 0-1.006.095-1.216.23-.355.207-.517.869-.517 1.526v1.277h.63V9.498c0-.432.14-.702.227-.838v2.358h1.746v-2.32c.096.145.234.404.234.8v1.277h.63V9.498c0-.655-.162-1.315-.514-1.523" fill="#d6b27a" />
    <path d="M15.1 7.052a.755.755 0 0 1-.744.765.755.755 0 0 1-.745-.765c0-.423.334-.766.745-.766s.745.343.745.766" fill="#ffe4ba" />
    <path d="M13.733 6.837c.076-.088.173-.15.258-.228.06-.054.158-.063.216 0 .129.141.368.27.551.158.073-.044.165-.015.209.055.02.032.07.06.12.085a.75.75 0 0 0-.732-.62c-.4 0-.727.325-.743.732.047-.053.075-.13.12-.182" fill="#6b4c43" />
    <path d="M15.192 6.817c0 .111-.035.201-.079.201-.043 0-.079-.09-.079-.2 0-.112.036-.202.08-.202.043 0 .078.09.078.201" fill="#ffe4ba" />
    <path d="M13.693 6.817c0 .111-.035.201-.078.201-.044 0-.08-.09-.08-.2 0-.112.036-.202.08-.202.043 0 .078.09.078.201" fill="#ffe4ba" />
    <path d="m15.225 11.024-.014-.046h-1.746v.16c-.416 1.027-.464 2.985-.446 3.634l.787-.022c-.028-.953.163-2.393.457-3.115h.255c.283.732.442 2.171.415 3.115l.786.022c.02-.674-.033-2.758-.494-3.748" />
    <path d="M13.913 14.981a.273.273 0 0 0-.26-.356h-.47a.272.272 0 0 0-.26.356z" fill="#413b31" />
    <path d="m14.019 7.753.002.026c0 .13.142.235.317.235.175 0 .317-.13.317-.26 0 0-.156-.011-.313-.012-.158 0-.318.01-.323.011" fill="#ffe4ba" />
    <path d="M14.463 10.988v-.04h.143v.04z" fill="none" stroke="#442c30" stroke-miterlimit="20" stroke-width=".625" />
    <path d="M14.509 8.54v.236c0 .09.072.161.161.161h.163c.089 0 .161-.072.161-.161V8.54z" fill="#c4c4c3" />
    <path d="M15.998 11.16a.236.236 0 0 1-.472 0v-.378a.236.236 0 0 1 .472 0z" fill="#ffe4ba" />
    <path d="M15.562 7.975c-.206-.135-.663-.23-1.196-.233v3.276h.845v-2.32c.096.145.234.404.234.8v1.277h.63V9.498c0-.655-.161-1.315-.513-1.523" fill="#bc9b6d" />
    <path d="M14.366 6.286v1.53a.755.755 0 0 0 .734-.765.756.756 0 0 0-.734-.765" fill="#ffe4ba" />
    <path d="M14.366 6.287v.45c.123.072.27.104.392.03.073-.044.166-.015.209.055.02.032.07.06.12.085a.75.75 0 0 0-.72-.62" fill="#6b4c43" />
    <path d="M15.192 6.817c0 .111-.035.201-.079.201-.043 0-.079-.09-.079-.2 0-.112.036-.202.08-.202.043 0 .078.09.078.201" fill="#ffe4ba" />
    <path d="m15.225 10.956-.014-.046h-.845v.67h.152c.284.744.442 2.21.415 3.17l.787.022c.019-.686-.034-2.808-.495-3.816" />
    <path d="M15.842 14.981a.272.272 0 0 0-.26-.356h-.47a.272.272 0 0 0-.26.356z" fill="#413b31" />
    <path d="M14.366 7.742v.271c.162-.013.289-.136.289-.259 0 0-.14-.01-.289-.012" fill="#ffe4ba" />
    <path d="M14.509 8.54v.236c0 .09.072.161.161.161h.163c.089 0 .161-.072.161-.161V8.54z" fill="#c4c4c3" />
    <path d="M14.427 6.59h.856a1.33 1.33 0 0 1-.06-.263c0-.39-.352-.71-.796-.731z" fill="#fff" />
    <path d="M14.598 5.62a.9.9 0 0 1 .253.1v.542a.132.132 0 0 1-.265 0v-.589c0-.019.005-.037.012-.054" fill="#f0f0f0" />
    <path d="M15.282 6.59a1.32 1.32 0 0 1-.06-.263c0-.404-.378-.733-.846-.733-.467 0-.846.329-.846.734 0 .045-.042.185-.07.263z" fill="#f5f5f5" />
    <path d="M14.364 5.86a.22.22 0 1 0-.001-.438.22.22 0 0 0 0 .438" fill="#f5f5f5" />
    <path d="M13.879 5.736c.079-.04.164-.09.259-.11a.137.137 0 0 1 .012.05v.487c0 .06-.061.11-.136.11-.075 0-.136-.05-.136-.11z" fill="#efefef" />
    <g>
      <path d="M14.603 5.62c.091.017.172.066.248.102v.443c0 .06-.06.107-.132.107-.073 0-.133-.048-.133-.107v-.48c0-.016.01-.052.017-.066" fill="#efefef" />
    </g>
    <g>
      <path d="M15.15 6.615c0 .039-.035.07-.08.07h-1.648c-.044 0-.08-.031-.08-.07 0-.04.036-.071.08-.071h1.649c.044 0 .08.032.08.07" fill="#efefef" />
    </g>
    <g>
      <path d="M15.307 6.544h-.882v.14h.882c.053 0 .095-.03.095-.07 0-.039-.042-.07-.094-.07" fill="#efefef" />
    </g>
    <g>
      <path d="M14.364 6.39a.078.078 0 0 0-.034.01l.017-.048h-.153l-.008.022h.047l-.03.084h.032l.03-.084h.044l-.03.084h.03l.015-.043a.06.06 0 0 1 .026-.008c.007 0 .01.004.008.009l-.015.042h.03l.016-.042c.005-.016-.005-.025-.024-.025" fill="#003b87" />
    </g>
    <g>
      <path d="M14.46 6.44a.052.052 0 0 1-.023.006c-.009 0-.014-.005-.012-.013 0-.008.01-.028.046-.025zm.047-.047a.211.211 0 0 0-.033-.002c-.055 0-.077.021-.08.041-.003.017.01.03.031.029a.06.06 0 0 0 .032-.01l-.003.007h.03z" fill="#003b87" />
    </g>
    <g>
      <path d="m14.526 6.397-.022.061h.03l.026-.071a.082.082 0 0 1-.034.01" fill="#003b87" />
    </g>
    <g>
      <path d="m14.686 6.398-.022.06h.03l.026-.071a.084.084 0 0 1-.034.01" fill="#003b87" />
    </g>
    <g>
      <path d="m14.748 6.363-.035.095h.03l.04-.107a.089.089 0 0 1-.035.012" fill="#003b87" />
    </g>
    <g>
      <path d="M14.158 6.362c-.201-.072-.195-.24-.195-.24s-.114.29.142.384z" fill="#d10071" />
    </g>
    <g>
      <path d="M14.194 6.264c-.125-.045-.122-.141-.122-.141s-.06.176.09.229z" fill="#d10071" />
    </g>
    <g>
      <path d="M14.614 6.408a.029.029 0 0 0-.029.022c-.001.01.01.015.018.015a.03.03 0 0 0 .03-.022c.001-.01-.006-.015-.019-.015m-.014.054c-.03 0-.05-.014-.047-.033.003-.02.032-.037.065-.037.029 0 .048.012.045.032-.003.021-.03.038-.063.038" fill="#003b87" />
    </g>
    <g>
      <path d="M14.972 6.746s.019.147.019.274c0 .127-.057.28-.208.28h-.185c-.098 0-.158-.23-.255-.23h-.002c-.097 0-.128.23-.225.23H13.9c-.151 0-.208-.153-.208-.28 0-.127.019-.274.019-.274z" fill="#e0d2c3" />
    </g>
    <g>
      <path d="M13.702 6.937a.112.112 0 1 1-.225 0 .112.112 0 0 1 .225 0" fill="#282c32" />
    </g>
    <g>
      <path d="M15.204 6.944a.112.112 0 1 1 0 0" fill="#282c32" />
    </g>
    <g>
      <path d="M13.538 7.11v-.334h.131v.335z" fill="#181111" />
    </g>
    <g>
      <path d="M15.016 7.11v-.334h.13v.335z" fill="#181111" />
    </g>
    <g>
      <g clip-path="url(#b)">
        <path d="m14.146 6.746-.329.54.303.014.18-.254.245-.3z" fill="#fff" />
      </g>
    </g>
    <g>
      <g clip-path="url(#c)">
        <path d="m14.72 6.746-.232.442.148.123.273-.565z" fill="#fff" />
      </g>
    </g>
    <g>
      <path d="M14.336 7.024h.001c.074 0 .127.067.178.133.034.043.077.097.105.097h.18c.167 0 .172-.21.172-.235 0-.083-.009-.176-.014-.228h-1.243a2.198 2.198 0 0 0-.015.228c0 .024.006.235.173.235h.21c.026 0 .06-.052.087-.094.042-.064.09-.136.166-.136m.433.281H14.6c-.046-.002-.079-.06-.126-.117-.032-.038-.078-.123-.138-.119-.024 0-.078.043-.104.08-.038.055-.06.124-.132.156h-.197c-.169 0-.246-.145-.246-.28 0-.112.018-.237.02-.242.002-.02.02-.034.042-.034h1.233c.022 0 .04.014.043.034 0 .005.019.13.019.241 0 .136-.077.281-.246.281" fill="#282c32" />
    </g>
    <g>
      <path d="M13.43 10.614a.737.737 0 0 0 .044-.288l-.008-.21c.017-.504-.082-1.001-.048-1.506l1.828-.008c.01.116.019.24.026.36-.04.581-.012 1.17.047 1.75h-1.903a.563.563 0 0 0 .01-.057l.005-.04" fill="#5f5346" />
    </g>
    <g>
      <path d="M15.09 9.074h.147v-1.33l-.146-.039z" fill="#5f5346" />
    </g>
    <g>
      <path d="M14.878 8.99v.103a.53.53 0 0 1-.53.53h-.01a.53.53 0 0 1-.529-.53V8.99z" fill="#11232e" />
    </g>
    <g>
      <path d="m13.798 7.732-.208-.026-.008 1.34.183-.012z" fill="#5f5346" />
    </g>
    <g>
      <path d="m14.35 11.693-.863-.676c-.048-.038-.066-.1-.042-.14.024-.04.081-.042.129-.005l.864.676z" fill="#464749" />
    </g>
    <g>
      <path d="m14.253 11.536.88-.685c.048-.038.107-.034.133.008.025.042.007.107-.042.144l-.878.687z" fill="#464749" />
    </g>
    <g>
      <path d="M13.404 10.91a16.687 16.687 0 0 1-.001-.436h1.91c0 .129-.002.263-.01.437z" fill="#464749" />
    </g>
    <g>
      <path d="M14.433 10.798h-1.027a3.522 3.522 0 0 1 0-.212h1.902c.002.063-.001.128-.008.212z" fill="#637b8e" />
    </g>
    <g>
      <path d="m10.52 14.957-1.614 1.807-1.616-1.807z" fill="#be1212" />
      <g transform="rotate(-180 8.905 7.735)">
        <path d="M10.522 6.831 8.907 8.638 7.292 6.831z" fill="#be1212" />
      </g>
      <g>
        <path d="M8.437 15.583V8.271h.938v7.312z" fill="#be1212" />
      </g>
    </g>
  </g>
</svg>