<svg width="26" height="34" xmlns="http://www.w3.org/2000/svg">
  <defs>
    <clipPath id="b">
      <path d="M17.347 7.156a.492.492 0 0 0-.493.493v6.031H18V7.65a.492.492 0 0 0-.492-.493z" />
    </clipPath>
    <clipPath id="d">
      <path d="M5.271 20.023v-15h15v15z" />
    </clipPath>
    <clipPath id="e">
      <path d="M13.98 7.78c-.816 0-1.477.66-1.477 1.476v4.424h3.905V9.256c0-.816-.661-1.477-1.477-1.477z" />
    </clipPath>
    <clipPath id="g">
      <path d="M14.062 7.78c-.673 0-1.22.66-1.22 1.476v4.424h3.227V9.256c0-.815-.547-1.477-1.221-1.477z" />
    </clipPath>
    <clipPath id="i">
      <path d="M18.084 12.752v-.273h.359v.273z" />
    </clipPath>
    <clipPath id="j">
      <path d="M18.415 12.757v-.278h.207v.278z" />
    </clipPath>
    <clipPath id="k">
      <path d="m7.393 15.54.843.118v-1.051l-.843-.267z" />
    </clipPath>
    <clipPath id="m">
      <path d="M5.271 20.023v-15h15v15z" />
    </clipPath>
    <clipPath id="n">
      <path d="m12.676 17.101.942.132V16.06l-.942-.297z" />
    </clipPath>
    <clipPath id="p">
      <path d="M5.271 20.023v-15h15v15z" />
    </clipPath>
    <clipPath id="q">
      <path d="M6.121 12.571c0 1.14.925 1.717.925 1.717l7.697 2.25c-.23-.147-.34-.443-.34-.443-.571-1.125-.15-2.872-.15-2.872.45-1.97 1.55-2.177 1.55-2.177l-8.308-.474c-1.374.592-1.374 2-1.374 2" />
    </clipPath>
    <clipPath id="s">
      <path d="M7.386 11.298c-.843.695-.517 1.865-.517 1.865.313.889 1.279 1.2 1.279 1.2.108.074 2.95.858 2.95.858.776.222 1.836.104 1.836.104 1.184-.474 1.075-2.073 1.075-2.073-.014-1.57-1.523-2.014-1.523-2.014-1.075-.385-3.59-.4-3.59-.4a3.357 3.357 0 0 0-.175-.004c-.982 0-1.335.464-1.335.464" />
    </clipPath>
    <clipPath id="u">
      <path d="M15.727 11.06c-1.616.608-1.63 3.362-1.63 3.362-.034 1.847.71 2.169.71 2.169.712.545 1.332-.26 1.332-.26 1.157-1.506.709-3.849.709-3.849-.16-1.338-.896-1.423-1.079-1.423-.026 0-.042.002-.042.002" />
    </clipPath>
    <clipPath id="w">
      <path d="M5.271 20.023v-15h15v15z" />
    </clipPath>
    <clipPath id="x">
      <path d="m7.563 10.49.013.164s.408.163 1.17.027l.014-.19s-.694.23-1.197 0" />
    </clipPath>
    <clipPath id="z">
      <path d="M5.271 20.023v-15h15v15z" />
    </clipPath>
    <clipPath id="A">
      <path d="m12.526 10.859.02.246s.617.247 1.769.041l.02-.287s-1.048.35-1.809 0" />
    </clipPath>
    <clipPath id="C">
      <path d="M15.26 13.952c-.003.55.258.996.584.999.326.002.595-.44.6-.99.003-.549-.258-.996-.584-.998h-.003c-.325 0-.592.442-.596.99" />
    </clipPath>
    <clipPath id="E">
      <path d="M5.271 20.023v-15h15v15z" />
    </clipPath>
    <clipPath id="F">
      <path d="M7.035 11.682c-.904 1.95 1.023 2.69 1.023 2.69l.066.013c.394.149.987-.5.987-.5.373-.425.423-.866.423-.866.363-1.423-.456-2.18-.456-2.18a2.079 2.079 0 0 0-.446-.05c-1.066 0-1.597.893-1.597.893" />
    </clipPath>
    <clipPath id="H">
      <path d="M5.271 20.023v-15h15v15z" />
    </clipPath>
    <clipPath id="I">
      <path d="m15.042 12.163.007.031.026.01.02-.022-.005-.03-.027-.01z" />
    </clipPath>
    <clipPath id="K">
      <path d="M5.271 20.023v-15h15v15z" />
    </clipPath>
    <clipPath id="L">
      <path d="m16.2 11.859-.001.032.023.017.025-.014.002-.032-.024-.018z" />
    </clipPath>
    <clipPath id="N">
      <path d="M5.271 20.023v-15h15v15z" />
    </clipPath>
    <clipPath id="O">
      <path d="m16.216 12.335-.011.03.016.025.028-.004.011-.029-.016-.026z" />
    </clipPath>
    <clipPath id="Q">
      <path d="M5.271 20.023v-15h15v15z" />
    </clipPath>
    <clipPath id="R">
      <path d="m15.053 12.684-.012.029.016.027.028-.002.012-.029-.015-.027z" />
    </clipPath>
    <clipPath id="T">
      <path d="M5.271 20.023v-15h15v15z" />
    </clipPath>
    <clipPath id="U">
      <path d="M10.094 11.958v-.244h.322v.244z" />
    </clipPath>
    <clipPath id="V">
      <path d="M10.39 11.964v-.25h.186v.25z" />
    </clipPath>
    <clipPath id="W">
      <path d="m10.586 12.063-.022.116c-.001.007.003.014.009.015h.003c.006.002.012-.002.013-.009l.022-.117c.001-.006-.003-.013-.009-.014l-.002-.001h-.003c-.005 0-.01.003-.011.01" />
    </clipPath>
    <clipPath id="Y">
      <path d="M5.271 20.023v-15h15v15z" />
    </clipPath>
    <clipPath id="Z">
      <path d="M10.052 12.067h-.002c-.006.002-.01.009-.009.016l.022.116c.002.007.008.012.014.01h.003c.006-.002.01-.01.008-.016l-.022-.116a.011.011 0 0 0-.011-.01h-.003" />
    </clipPath>
    <clipPath id="ab">
      <path d="M5.271 20.023v-15h15v15z" />
    </clipPath>
    <linearGradient id="c" gradientUnits="userSpaceOnUse" x1="5.31" y1="20.12" x2="5.42" y2="20.12">
      <stop stop-color="#fff" offset="0" />
      <stop stop-color="#7b7d80" offset="1" />
    </linearGradient>
    <linearGradient id="f" gradientUnits="userSpaceOnUse" x1="5.36" y1="20.12" x2="5.47" y2="20.12">
      <stop stop-color="#fff" offset="0" />
      <stop stop-color="#7b7d80" offset="1" />
    </linearGradient>
    <linearGradient id="h" gradientUnits="userSpaceOnUse" x1="5.36" y1="20.12" x2="5.47" y2="20.12">
      <stop stop-color="#fff" offset="0" />
      <stop stop-color="#7b7d80" offset="1" />
    </linearGradient>
    <linearGradient id="l" gradientUnits="userSpaceOnUse" x1="5.35" y1="20.13" x2="5.47" y2="20.13">
      <stop stop-color="#9fa2a5" offset="0" />
      <stop stop-color="#85878a" offset="1" />
    </linearGradient>
    <linearGradient id="o" gradientUnits="userSpaceOnUse" x1="5.39" y1="20.12" x2="5.5" y2="20.12">
      <stop stop-color="#9fa2a5" offset="0" />
      <stop stop-color="#85878a" offset="1" />
    </linearGradient>
    <linearGradient id="r" gradientUnits="userSpaceOnUse" x1="5.37" y1="20.13" x2="5.48" y2="20.13">
      <stop stop-color="#abaeb0" offset="0" />
      <stop stop-color="#525355" offset="1" />
    </linearGradient>
    <linearGradient id="t" gradientUnits="userSpaceOnUse" x1="5.37" y1="20.12" x2="5.48" y2="20.12">
      <stop stop-color="#d1d2d4" offset="0" />
      <stop stop-color="#989b9e" offset="1" />
    </linearGradient>
    <linearGradient id="v" gradientUnits="userSpaceOnUse" x1="5.35" y1="20.12" x2="5.46" y2="20.12">
      <stop stop-color="#5c5d60" offset="0" />
      <stop stop-color="#dedfe0" offset="1" />
    </linearGradient>
    <linearGradient id="y" gradientUnits="userSpaceOnUse" x1="5.36" y1="20.22" x2="5.48" y2="20.22">
      <stop stop-color="#fff" offset="0" />
      <stop stop-color="#1a1818" offset="1" />
    </linearGradient>
    <linearGradient id="B" gradientUnits="userSpaceOnUse" x1="5.37" y1="20.06" x2="5.48" y2="20.06">
      <stop stop-color="#fff" offset="0" />
      <stop stop-color="#1a1818" offset="1" />
    </linearGradient>
    <linearGradient id="D" gradientUnits="userSpaceOnUse" x1="5.37" y1="20.09" x2="5.48" y2="20.09">
      <stop stop-color="#fff" offset="0" />
      <stop stop-color="#1a1818" offset="1" />
    </linearGradient>
    <linearGradient id="G" gradientUnits="userSpaceOnUse" x1="5.37" y1="20.11" x2="5.48" y2="20.11">
      <stop stop-color="#babcbf" offset="0" />
      <stop stop-color="#babcbf" offset=".01" />
      <stop stop-color="#d8dadb" offset="1" />
    </linearGradient>
    <linearGradient id="J" gradientUnits="userSpaceOnUse" x1="4.22" y1="19.77" x2="4.34" y2="19.77">
      <stop stop-color="#8a8a89" offset="0" />
      <stop stop-color="#898988" offset=".03" />
      <stop stop-color="#747374" offset="1" />
    </linearGradient>
    <linearGradient id="M" gradientUnits="userSpaceOnUse" x1="6.09" y1="20.72" x2="6.2" y2="20.72">
      <stop stop-color="#8a8a89" offset="0" />
      <stop stop-color="#898988" offset=".03" />
      <stop stop-color="#747374" offset="1" />
    </linearGradient>
    <linearGradient id="P" gradientUnits="userSpaceOnUse" x1="5.41" y1="20.17" x2="5.52" y2="20.17">
      <stop stop-color="#8a8a89" offset="0" />
      <stop stop-color="#898988" offset=".03" />
      <stop stop-color="#747374" offset="1" />
    </linearGradient>
    <linearGradient id="S" gradientUnits="userSpaceOnUse" x1="5.36" y1="20.15" x2="5.48" y2="20.15">
      <stop stop-color="#8a8a89" offset="0" />
      <stop stop-color="#898988" offset=".03" />
      <stop stop-color="#747374" offset="1" />
    </linearGradient>
    <linearGradient id="X" gradientUnits="userSpaceOnUse" x1="5.41" y1="19.29" x2="5.52" y2="19.29">
      <stop stop-color="#fff" offset="0" />
      <stop stop-color="#e0dfdf" offset=".1" />
      <stop stop-color="#9a9999" offset=".35" />
      <stop stop-color="#636161" offset=".57" />
      <stop stop-color="#3b3939" offset=".76" />
      <stop stop-color="#232121" offset=".91" />
      <stop stop-color="#1a1818" offset="1" />
    </linearGradient>
    <linearGradient id="aa" gradientUnits="userSpaceOnUse" x1="5.9" y1="20.05" x2="6" y2="20.05">
      <stop stop-color="#fff" offset="0" />
      <stop stop-color="#e0dfdf" offset=".1" />
      <stop stop-color="#9a9999" offset=".35" />
      <stop stop-color="#636161" offset=".57" />
      <stop stop-color="#3b3939" offset=".76" />
      <stop stop-color="#232121" offset=".91" />
      <stop stop-color="#1a1818" offset="1" />
    </linearGradient>
    <filter id="a" width="45.135" height="54.999" x="-9.73" y="-10.98" filterUnits="userSpaceOnUse">
      <feOffset dx=".035" dy=".999" result="FeOffset1287Out" in="SourceGraphic" />
      <feGaussianBlur stdDeviation="0.8 0.8" result="FeGaussianBlur1288Out" in="FeOffset1287Out" />
    </filter>
  </defs>
  <g transform="rotate(2 12.82 16.02)">
    <g filter="url(#a)">
      <path d="M23.368 12.41c0 7.504-10.549 18.613-10.549 18.613S2.271 19.913 2.271 12.41 6.994 1.023 12.819 1.023c5.826 0 10.549 3.884 10.549 11.387" fill="none" stroke="#000" stroke-opacity=".16" stroke-width=".5" />
    </g>
    <path d="M23.368 12.41c0 7.504-10.549 18.613-10.549 18.613S2.271 19.913 2.271 12.41 6.994 1.023 12.819 1.023c5.826 0 10.549 3.884 10.549 11.387" fill="#24489b" />
    <path d="M23.368 12.41c0 7.504-10.549 18.613-10.549 18.613S2.271 19.913 2.271 12.41 6.994 1.023 12.819 1.023c5.826 0 10.549 3.884 10.549 11.387" fill="none" stroke="#fff" stroke-miterlimit="20" stroke-width=".5" />
    <g>
      <path d="M12.82 3.757a8.365 8.365 0 0 0 0 16.73 8.365 8.365 0 1 0 0-16.73" fill="#fff" />
      <g>
        <g clip-path="url(#b)">
          <path d="M16.854 13.68V7.156H18v6.524z" fill="url(#c)" />
        </g>
        <g clip-path="url(#d)">
          <path d="M17.999 13.68V7.65a.492.492 0 0 0-.492-.493h-.08v6.524z" fill="#aeb0b3" />
        </g>
        <g clip-path="url(#d)">
          <path d="M16.477 8.178V7.98h1.903v.197z" fill="#818386" />
        </g>
        <g clip-path="url(#d)">
          <path d="M18.292 9.643h-2.398v-.099h2.3V8.498h-2.3V8.4h2.398z" fill="#818386" />
        </g>
        <g clip-path="url(#d)">
          <path d="M16.477 12.819v-.197h1.903v.197z" fill="#818386" />
        </g>
        <g clip-path="url(#d)">
          <path d="M16.477 9.969v-.197h1.903v.197z" fill="#818386" />
        </g>
        <g clip-path="url(#d)">
          <path d="M16.373 11.005v-.098h2.138v.098z" fill="#818386" />
        </g>
        <g clip-path="url(#d)">
          <path d="M16.373 11.309v-.099h2.138v.099z" fill="#818386" />
        </g>
        <g clip-path="url(#e)">
          <path d="M12.503 13.68v-5.9h3.905v5.9z" fill="url(#f)" />
        </g>
        <g clip-path="url(#g)">
          <path d="M12.842 13.68v-5.9h3.227v5.9z" fill="url(#h)" />
        </g>
        <path d="M12.503 9.327V9.13h3.905v.197z" fill="#96999c" />
        <path d="M12.503 12.126v-.098h3.905v.098z" fill="#96999c" />
        <path d="M12.503 9.544v-.098h3.905v.098z" fill="#96999c" />
        <path d="M11.822 13.828v-.295h6.943v.295z" fill="#5a5b5e" />
        <path d="M18.453 13.135c0 .037-.043.067-.096.067-.053 0-.095-.03-.095-.067v-.174c0-.036.042-.066.095-.066s.096.03.096.066z" fill="#facd97" />
        <path d="M18.793 12.734a.11.11 0 1 1-.22 0 .11.11 0 0 1 .22 0" fill="#facd97" />
        <path d="M18.07 12.734a.11.11 0 1 1-.22 0 .11.11 0 0 1 .22 0" fill="#facd97" />
        <path d="M17.954 12.71v-.405h.787v.405z" fill="#331e12" />
        <path d="M18.69 12.514a.342.342 0 0 0-.685 0v.214a.342.342 0 1 0 .685 0z" fill="#facd97" />
        <path d="M18.174 12.686a.048.048 0 1 1-.097 0 .048.048 0 0 1 .097 0" fill="#331e12" />
        <path d="M18.082 12.577h.087" fill="none" stroke-linejoin="round" stroke-linecap="round" stroke="#331e12" stroke-miterlimit="20" stroke-width=".264" />
        <path d="M18.566 12.686a.048.048 0 1 1-.096 0 .048.048 0 0 1 .096 0" fill="#331e12" />
        <path d="M18.475 12.577h.087" fill="none" stroke-linejoin="round" stroke-linecap="round" stroke="#331e12" stroke-miterlimit="20" stroke-width=".264" />
        <path d="M18.244 12.858c0 .036.046.065.103.065.058 0 .104-.03.104-.065z" fill="#d6b27a" />
        <path d="M18.377 12.44h.434a.656.656 0 0 1-.03-.133c0-.198-.179-.36-.404-.37z" fill="#fff" />
        <path d="M18.464 11.948a.47.47 0 0 1 .128.051v.275a.067.067 0 0 1-.134 0v-.298c0-.01.002-.02.006-.028" fill="#f0f0f0" />
        <path d="M18.81 12.44a.655.655 0 0 1-.03-.133c0-.205-.191-.371-.428-.371s-.429.166-.429.371c0 .023-.02.094-.035.133z" fill="#f5f5f5" />
        <path d="M18.345 12.07c.062 0 .112-.05.112-.11 0-.062-.05-.111-.112-.111a.11.11 0 0 0 0 .221" fill="#f5f5f5" />
        <path d="M18.1 12.007c.04-.02.082-.045.13-.055a.07.07 0 0 1 .007.025v.247c0 .03-.03.055-.07.055-.037 0-.068-.025-.068-.055z" fill="#efefef" />
        <path d="M18.467 11.949c.046.008.086.033.125.052v.224c0 .03-.03.054-.067.054-.037 0-.067-.024-.067-.054v-.243c0-.008.005-.027.009-.033" fill="#efefef" />
        <path d="M18.745 12.452c0 .02-.018.036-.04.036h-.835c-.022 0-.04-.016-.04-.036 0-.02.018-.036.04-.036h.835c.022 0 .04.017.04.036" fill="#efefef" />
        <path d="M18.824 12.416h-.447v.072h.447c.026 0 .048-.016.048-.036 0-.02-.022-.036-.048-.036" fill="#efefef" />
        <path d="M18.345 12.34a.039.039 0 0 0-.017.004l.008-.025h-.077l-.004.011h.024l-.016.043h.017l.015-.043h.022l-.015.043h.015l.007-.022a.03.03 0 0 1 .014-.004c.003 0 .005.002.004.005l-.008.021h.016l.007-.022c.003-.007-.002-.012-.012-.012" fill="#003b87" />
        <path d="M18.394 12.364a.024.024 0 0 1-.011.003c-.005 0-.008-.002-.007-.007 0-.004.005-.013.024-.012zm.024-.024a.119.119 0 0 0-.017 0c-.028 0-.039.01-.04.02-.002.009.005.014.015.014a.03.03 0 0 0 .016-.004v.003h.014z" fill="#003b87" />
        <path d="m18.427 12.342-.012.031h.015l.014-.036a.04.04 0 0 1-.017.005" fill="#003b87" />
        <path d="m18.509 12.342-.012.031h.015l.013-.036a.039.039 0 0 1-.016.005" fill="#003b87" />
        <path d="m18.54 12.325-.018.048h.015l.02-.054a.04.04 0 0 1-.017.006" fill="#003b87" />
        <path d="M18.24 12.325c-.1-.037-.098-.122-.098-.122s-.058.147.072.195z" fill="#d10071" />
        <path d="M18.259 12.275c-.063-.023-.062-.072-.062-.072s-.03.09.045.116z" fill="#d10071" />
        <g>
          <path d="M18.473 12.348a.015.015 0 0 0-.015.011c0 .005.004.008.01.008.008 0 .013-.007.014-.012 0-.004-.003-.007-.009-.007m-.008.027c-.014 0-.024-.007-.023-.016.002-.011.016-.02.032-.02.015 0 .025.007.023.017-.001.01-.015.019-.032.019" fill="#003b87" />
        </g>
        <g>
          <path d="M17.832 14.609a.105.105 0 0 1-.209 0v-.167a.105.105 0 0 1 .21 0z" fill="#ffe4ba" />
        </g>
        <g>
          <path d="M19.1 14.609a.105.105 0 0 1-.21 0v-.167a.105.105 0 0 1 .21 0z" fill="#ffe4ba" />
        </g>
        <g>
          <path d="M18.906 13.197c-.093-.06-.3-.103-.54-.103-.24 0-.447.042-.54.103-.157.09-.229.384-.229.676v.566h.279v-.566c0-.192.062-.312.1-.372v1.045h.775v-1.028c.042.064.103.179.103.355v.566h.28v-.566c0-.29-.072-.583-.228-.676" fill="#d6b27a" />
        </g>
        <g>
          <path d="m18.757 14.549-.006-.02h-.774v.07c-.184.456-.206 1.323-.198 1.611l.349-.01c-.012-.422.073-1.06.203-1.38h.113c.125.324.195.962.183 1.38l.349.01c.008-.298-.015-1.222-.22-1.661" fill="#d6b27a" />
        </g>
        <g>
          <path d="M18.175 16.303a.12.12 0 0 0-.115-.158h-.21a.121.121 0 0 0-.114.158z" fill="#413b31" />
        </g>
        <g>
          <path d="M19.03 16.303a.12.12 0 0 0-.115-.158h-.209a.12.12 0 0 0-.115.158z" fill="#413b31" />
        </g>
        <g>
          <path d="M18.222 13.099v.011c0 .058.064.105.141.105.078 0 .141-.058.141-.115 0 0-.07-.006-.139-.006-.07 0-.14.005-.143.005" fill="#ffe4ba" />
        </g>
        <g>
          <path d="M17.957 14.602v-.149h.828v.149z" fill="#dba179" />
        </g>
        <g>
          <path d="M18.288 14.615v-.181h.177v.18z" fill="none" stroke="#442c30" stroke-miterlimit="20" stroke-width=".356" />
        </g>
        <g>
          <path d="M18.419 14.533v-.018h.064v.018z" fill="none" stroke="#442c30" stroke-miterlimit="20" stroke-width=".356" />
        </g>
        <g>
          <path d="M18.44 13.448v.105c0 .04.031.071.071.071h.072c.04 0 .072-.032.072-.071v-.105z" fill="#c4c4c3" />
        </g>
        <g>
          <path d="M19.1 14.609a.105.105 0 0 1-.21 0v-.167a.105.105 0 0 1 .21 0z" fill="#ffe4ba" />
        </g>
        <g>
          <path d="M18.906 13.197c-.091-.06-.294-.102-.53-.103v1.452h.375v-1.028c.042.064.103.179.103.355v.566h.28v-.566c0-.29-.072-.583-.228-.676" fill="#bc9b6d" />
        </g>
        <g>
          <path d="m18.757 14.549-.006-.02h-.375v.291h.068c.125.324.195.962.183 1.38l.349.01c.008-.298-.015-1.222-.22-1.661" fill="#d6b27a" />
        </g>
        <g>
          <path d="M19.03 16.303a.12.12 0 0 0-.115-.158h-.209a.12.12 0 0 0-.115.158z" fill="#413b31" />
        </g>
        <g>
          <path d="M18.376 13.094v.12c.072-.006.128-.06.128-.114 0 0-.062-.005-.128-.006" fill="#ffe4ba" />
        </g>
        <g>
          <path d="M18.376 14.602v-.149h.409v.149z" fill="#dba179" />
        </g>
        <g>
          <path d="M18.376 14.615v-.181h.09v.18z" fill="none" stroke="#442c30" stroke-miterlimit="20" stroke-width=".356" />
        </g>
        <g>
          <path d="M18.419 14.533v-.018h.064v.018z" fill="none" stroke="#442c30" stroke-miterlimit="20" stroke-width=".356" />
        </g>
        <g>
          <path d="M18.44 13.448v.105c0 .04.031.071.071.071h.072c.04 0 .072-.032.072-.071v-.105z" fill="#c4c4c3" />
        </g>
        <g>
          <path d="M18.653 12.479s.009.072.009.135c0 .063-.028.138-.102.138h-.092c-.048 0-.077-.114-.125-.114h-.001c-.048 0-.063.114-.111.114h-.106c-.074 0-.103-.075-.103-.138 0-.063.01-.135.01-.135z" fill="#e0d2c3" />
        </g>
        <g>
          <path d="M18.028 12.573c0 .03-.024.056-.055.056a.056.056 0 1 1 0-.111c.03 0 .055.024.055.055" fill="#282c32" />
        </g>
        <g>
          <path d="M18.769 12.576c0 .03-.025.056-.056.056a.056.056 0 0 1-.055-.056.055.055 0 1 1 .11 0" fill="#282c32" />
        </g>
        <g>
          <path d="M17.947 12.659v-.165h.065v.165z" fill="#181111" />
        </g>
        <g>
          <path d="M18.674 12.659v-.165h.065v.165z" fill="#181111" />
        </g>
        <g>
          <g clip-path="url(#i)">
            <path d="m18.246 12.479-.162.267.15.006.088-.125.12-.148z" fill="#fff" />
          </g>
        </g>
        <g>
          <g clip-path="url(#j)">
            <path d="m18.529 12.479-.114.218.072.06.135-.278z" fill="#fff" />
          </g>
        </g>
        <g>
          <path d="M18.34 12.63h.002c.036 0 .062.036.088.071.016.024.037.053.052.053h.088c.082 0 .085-.114.085-.127 0-.045-.005-.096-.008-.124h-.612c-.003.028-.007.079-.007.124 0 .013.002.127.084.127h.104c.013 0 .03-.028.043-.05.021-.036.044-.075.081-.075m.214.153h-.082c-.023-.001-.04-.033-.063-.064-.015-.02-.038-.066-.067-.064-.012 0-.039.023-.052.043-.02.03-.03.068-.065.085h-.097c-.083 0-.121-.079-.121-.152 0-.06.01-.128.01-.131a.021.021 0 0 1 .02-.019h.608c.011 0 .02.008.021.019 0 .003.01.07.01.13 0 .074-.039.153-.122.153" fill="#282c32" />
        </g>
        <g>
          <g clip-path="url(#k)">
            <path d="M7.393 15.658V14.34h.843v1.318z" fill="url(#l)" />
          </g>
        </g>
        <g>
          <g clip-path="url(#m)">
            <path d="m10.826 15.399-2.59.259v-1.273l2.55.17z" fill="#6d6f72" />
          </g>
        </g>
        <g>
          <g clip-path="url(#n)">
            <path d="M12.676 17.233v-1.471h.942v1.471z" fill="url(#o)" />
          </g>
        </g>
        <g>
          <g clip-path="url(#p)">
            <path d="m16.021 16.42-2.403.813V15.66z" fill="#6d6f72" />
          </g>
        </g>
        <g>
          <g clip-path="url(#q)">
            <path d="M6.121 16.539v-5.967h9.683v5.967z" fill="url(#r)" />
          </g>
        </g>
        <g>
          <g clip-path="url(#s)">
            <path d="M6.543 15.443v-4.61h7.575v4.61z" fill="url(#t)" />
          </g>
        </g>
        <g>
          <g clip-path="url(#u)">
            <path d="M14.063 17.136V11.06h3.233v6.077z" fill="url(#v)" />
          </g>
        </g>
        <g>
          <g clip-path="url(#w)">
            <path d="M8.76 10.49c0 .053-.268.096-.599.096-.33 0-.598-.043-.598-.096 0-.052.268-.095.598-.095.33 0 .599.043.599.095" fill="#818386" />
          </g>
        </g>
        <g>
          <g clip-path="url(#x)">
            <path d="M7.563 10.817v-.327H8.76v.327z" fill="url(#y)" />
          </g>
        </g>
        <g>
          <g clip-path="url(#z)">
            <path d="M14.335 10.859c0 .08-.405.144-.904.144-.5 0-.905-.065-.905-.144 0-.08.405-.144.905-.144s.904.064.904.144" fill="#818386" />
          </g>
        </g>
        <g>
          <g clip-path="url(#A)">
            <path d="M12.526 11.352v-.493h1.81v.493z" fill="url(#B)" />
          </g>
        </g>
        <g>
          <g transform="rotate(-89.557 15.85 13.96)" clip-path="url(#C)">
            <path d="M14.852 14.561v-1.206h2v1.206z" fill="url(#D)" />
          </g>
        </g>
        <g>
          <g clip-path="url(#E)">
            <path d="M15.712 14.89c-.299-.003-.537-.412-.534-.913.004-.502.25-.907.548-.904.298.002.537.41.533.912-.004.502-.25.907-.547.905" fill="#aeb0b3" />
          </g>
          <g clip-path="url(#E)">
            <path d="M9.29 10.764v-.056h.09v.056z" fill="#c7c9cb" />
          </g>
          <g clip-path="url(#E)">
            <path d="M9.38 10.764v-.056h.073v.056z" fill="#6d6f72" />
          </g>
          <g clip-path="url(#E)">
            <path d="M9.254 10.764v-.056h.036v.056z" fill="#818386" />
          </g>
          <g clip-path="url(#E)">
            <path d="M9.254 10.764v-.056h.199v.056z" fill="none" stroke="#6d6f72" stroke-miterlimit="20" stroke-width=".065" />
          </g>
          <g clip-path="url(#E)">
            <path d="M9.324 10.798v-.034h.059v.034z" fill="#6d6f72" />
          </g>
          <g clip-path="url(#E)">
            <path d="M9.58 10.764v-.056h.09v.056z" fill="#c7c9cb" />
          </g>
          <g clip-path="url(#E)">
            <path d="M9.67 10.764v-.056h.073v.056z" fill="#6d6f72" />
          </g>
          <g clip-path="url(#E)">
            <path d="M9.545 10.764v-.056h.036v.056z" fill="#818386" />
          </g>
          <g clip-path="url(#E)">
            <path d="M9.545 10.764v-.056h.198v.056z" fill="none" stroke="#6d6f72" stroke-miterlimit="20" stroke-width=".065" />
          </g>
          <g clip-path="url(#E)">
            <path d="M9.614 10.798v-.034h.06v.034z" fill="#6d6f72" />
          </g>
        </g>
        <g>
          <g clip-path="url(#F)">
            <path d="M6.131 14.534v-3.745h3.766v3.745z" fill="url(#G)" />
          </g>
        </g>
        <g>
          <g clip-path="url(#H)">
            <path d="M11.057 14.737c0 .06-.263.109-.588.109-.325 0-.589-.049-.589-.11 0-.06.264-.108.589-.108.325 0 .588.048.588.109" fill="#a3a3a3" />
          </g>
          <g clip-path="url(#H)">
            <path d="m16.269 12.448-1.257.36c-.015 0-.028-.015-.028-.032v-.667c0-.017.013-.03.028-.03l1.299-.327c.01.006.007.009.007.026v.636c0 .017-.036.034-.05.034" fill="#1a1818" />
          </g>
          <g clip-path="url(#H)">
            <path d="m15.028 12.11 1.264-.332c.008 0 .003.085.002.152v.48c-.046.022-.005.007-.037.016l-1.229.35c-.008 0-.016-.008-.016-.018v-.63c0-.01.008-.019.016-.019" fill="#e82727" />
          </g>
          <g clip-path="url(#H)">
            <path d="m15.028 12.11 1.264-.332c.008 0 .003.085.002.152v.48c-.046.022-.005.007-.037.016l-1.229.35c-.008 0-.016-.008-.016-.018v-.63c0-.01.008-.019.016-.019z" fill="none" stroke="#ae0721" stroke-miterlimit="20" stroke-width=".173" />
          </g>
        </g>
        <g>
          <g clip-path="url(#I)">
            <path d="M15.042 12.204v-.063h.054v.063z" fill="url(#J)" />
          </g>
        </g>
        <g>
          <g clip-path="url(#K)">
            <path d="m15.046 12.179-.003-.015.02-.021.026.009.006.03-.02.021-.013-.004-.013-.004zm.03.024h-.001zm.02-.021zm-.007-.03zm-.026-.01zm-.02.022v-.001zm.019.036.013.005.022-.022-.006-.032-.028-.01-.02.022h-.001c0 .006.002.01.003.016l.004.016z" fill="#464545" />
          </g>
          <g clip-path="url(#K)">
            <path d="m15.062 12.181-.003-.012.008-.008.01.004.002.012-.007.008z" fill="#2e2e2d" />
          </g>
        </g>
        <g>
          <g transform="rotate(-74.597 16.225 11.875)" clip-path="url(#L)">
            <path d="M16.186 11.909v-.065h.075v.065z" fill="url(#M)" />
          </g>
        </g>
        <g>
          <g clip-path="url(#N)">
            <path d="M16.2 11.875v-.015l.025-.014.023.017-.002.03-.023.015-.012-.008-.012-.009zm.023.033zm.024-.015zm0-.031h.001zm-.023-.017h.001zm-.024.015zm.01.04a.32.32 0 0 0 .012.01l.026-.015v-.001l.001-.032v-.001l-.024-.018-.025.016-.001.016v.016z" fill="#464545" />
          </g>
          <g clip-path="url(#N)">
            <path d="m16.214 11.882.001-.012.01-.005.008.006v.012l-.01.006z" fill="#2e2e2d" />
          </g>
        </g>
        <g>
          <g transform="rotate(-53.57 16.23 12.36)" clip-path="url(#O)">
            <path d="M16.192 12.4v-.08h.08v.08z" fill="url(#P)" />
          </g>
        </g>
        <g>
          <g clip-path="url(#Q)">
            <path d="M16.21 12.35a.702.702 0 0 1 .006-.015c.01 0 .018-.002.027-.003l.016.025-.01.028-.027.004-.009-.012-.008-.013zm.012.04v-.001zm.027-.005v.001zm.01-.029v.001zm-.016-.024h.001zm-.027.003zm-.004.042.009.013.028-.002v-.001l.012-.03-.016-.027h-.001c-.01 0-.019.002-.028.004l-.006.015-.005.015z" fill="#464545" />
          </g>
          <g clip-path="url(#Q)">
            <path d="m16.222 12.362.004-.011.01-.002.007.01-.004.011-.01.001z" fill="#2e2e2d" />
          </g>
        </g>
        <g>
          <g transform="rotate(-50.814 15.07 12.71)" clip-path="url(#R)">
            <path d="M15.03 12.75v-.079h.08v.08z" fill="url(#S)" />
          </g>
        </g>
        <g>
          <g clip-path="url(#T)">
            <path d="m15.048 12.699.006-.014.027-.002.015.026-.012.028-.027.002-.008-.013-.008-.013zm.01.04h-.001zm.027-.002h-.001zm.011-.029v.002zm-.015-.025zm-.027.002zm-.005.042.007.013.029-.001.013-.03-.015-.027h-.001a.93.93 0 0 0-.029.001.207.207 0 0 0-.006.015l-.006.015z" fill="#464545" />
          </g>
          <g clip-path="url(#T)">
            <path d="m15.059 12.712.005-.011h.01l.006.01-.005.01h-.01z" fill="#2e2e2d" />
          </g>
          <g clip-path="url(#T)">
            <path d="m15.24 12.448-.019-.184.05-.01a.102.102 0 0 1 .036-.002c.01.001.019.005.026.01a.06.06 0 0 1 .019.024.171.171 0 0 1 .016.067l-.002.025a.068.068 0 0 1-.017.033.051.051 0 0 1-.013.01.068.068 0 0 1-.024.01l-.01.002zm-.058-.205.017.24.11-.022a.15.15 0 0 0 .05-.02.089.089 0 0 0 .042-.073.21.21 0 0 0-.004-.054.154.154 0 0 0-.018-.047.088.088 0 0 0-.068-.044.158.158 0 0 0-.05.003z" fill="#1a1818" />
          </g>
          <g clip-path="url(#T)">
            <path d="m15.24 12.448-.019-.184.05-.01a.102.102 0 0 1 .036-.002c.01.001.019.005.026.01a.06.06 0 0 1 .019.024.171.171 0 0 1 .016.067l-.002.025a.068.068 0 0 1-.017.033.051.051 0 0 1-.013.01.068.068 0 0 1-.024.01l-.01.002zm-.058-.205.017.24.11-.022a.15.15 0 0 0 .05-.02.089.089 0 0 0 .042-.073.21.21 0 0 0-.004-.054.154.154 0 0 0-.018-.047.088.088 0 0 0-.068-.044.158.158 0 0 0-.05.003z" fill="none" stroke="#1a1818" stroke-miterlimit="20" stroke-width=".1" />
          </g>
          <g clip-path="url(#T)">
            <path d="M15.539 12.396a.024.024 0 0 1-.004-.01l-.002-.012a.058.058 0 0 1-.023.022.086.086 0 0 1-.053.009.05.05 0 0 1-.018-.007.046.046 0 0 1-.02-.035c0-.008 0-.015.002-.022a.048.048 0 0 1 .01-.016.078.078 0 0 1 .031-.02.13.13 0 0 1 .036-.008l.015-.002a.37.37 0 0 0 .01 0l-.001-.014a.028.028 0 0 0-.003-.011.027.027 0 0 0-.013-.012l-.008-.002h-.017a.074.074 0 0 0-.014.002.03.03 0 0 0-.02.015.032.032 0 0 0-.002.014l-.03.003a.06.06 0 0 1 .005-.026.057.057 0 0 1 .015-.018.069.069 0 0 1 .02-.011.11.11 0 0 1 .056-.005l.014.005a.04.04 0 0 1 .02.022.07.07 0 0 1 .006.02l.008.083.001.01.003.008.003.009.003.006zm-.057-.017a.06.06 0 0 0 .022-.006.05.05 0 0 0 .014-.01.036.036 0 0 0 .008-.012.042.042 0 0 0 .001-.013l-.002-.022h-.012l-.017.002a.158.158 0 0 0-.017.005.064.064 0 0 0-.016.008.037.037 0 0 0-.01.011.031.031 0 0 0-.004.017c0 .004.002.008.004.01a.019.019 0 0 0 .007.007.028.028 0 0 0 .01.003.05.05 0 0 0 .012 0" fill="#1a1818" />
          </g>
          <g clip-path="url(#T)">
            <path d="M15.482 12.379a.05.05 0 0 1-.011 0 .028.028 0 0 1-.01-.003.019.019 0 0 1-.008-.006.024.024 0 0 1-.004-.01c0-.007 0-.013.003-.018a.037.037 0 0 1 .011-.011.064.064 0 0 1 .016-.008.158.158 0 0 1 .017-.005l.017-.002h.012l.002.022-.001.013a.036.036 0 0 1-.008.012.05.05 0 0 1-.014.01.06.06 0 0 1-.022.006zm.087.014-.003-.006a.104.104 0 0 1-.003-.009.044.044 0 0 1-.003-.009l-.001-.009-.008-.083a.07.07 0 0 0-.005-.02.04.04 0 0 0-.021-.022.059.059 0 0 0-.03-.006h-.014a.11.11 0 0 0-.025.006.069.069 0 0 0-.021.011.057.057 0 0 0-.015.018.06.06 0 0 0-.004.026l.029-.003c0-.005.001-.01.003-.014a.03.03 0 0 1 .02-.015.074.074 0 0 1 .013-.002h.017l.008.002a.027.027 0 0 1 .013.012.028.028 0 0 1 .003.01l.001.014a.37.37 0 0 1-.01 0l-.015.002a.13.13 0 0 0-.036.009.078.078 0 0 0-.032.02.048.048 0 0 0-.009.016.052.052 0 0 0-.002.022.046.046 0 0 0 .02.035.05.05 0 0 0 .018.007.088.088 0 0 0 .038-.003.067.067 0 0 0 .038-.028l.002.013c0 .003.002.006.004.01z" fill="none" stroke="#1a1818" stroke-miterlimit="20" stroke-width=".1" />
          </g>
          <g clip-path="url(#T)">
            <path d="m15.608 12.2.004.028a.064.064 0 0 1 .018-.026.057.057 0 0 1 .03-.013.072.072 0 0 1 .028.002.047.047 0 0 1 .02.01.056.056 0 0 1 .011.02.118.118 0 0 1 .006.024l.015.106-.028.004-.016-.11a.07.07 0 0 0-.003-.013.04.04 0 0 0-.008-.01.025.025 0 0 0-.011-.006.03.03 0 0 0-.015-.001.046.046 0 0 0-.019.007.05.05 0 0 0-.02.032.064.064 0 0 0 0 .02l.013.092-.03.004-.023-.166z" fill="#1a1818" />
          </g>
          <g clip-path="url(#T)">
            <path d="m15.608 12.2.004.028a.064.064 0 0 1 .018-.026.057.057 0 0 1 .03-.013.072.072 0 0 1 .028.002.047.047 0 0 1 .02.01.056.056 0 0 1 .011.02.118.118 0 0 1 .006.024l.015.106-.028.004-.016-.11a.07.07 0 0 0-.003-.013.04.04 0 0 0-.008-.01.025.025 0 0 0-.011-.006.03.03 0 0 0-.015-.001.046.046 0 0 0-.019.007.05.05 0 0 0-.02.032.064.064 0 0 0 0 .02l.013.092-.03.004-.023-.166z" fill="none" stroke="#1a1818" stroke-miterlimit="20" stroke-width=".1" />
          </g>
          <g clip-path="url(#T)">
            <path d="M15.919 12.295a.106.106 0 0 1-.001.038.072.072 0 0 1-.012.027.07.07 0 0 1-.023.018.096.096 0 0 1-.062.008.071.071 0 0 1-.027-.013.046.046 0 0 1-.016-.027l.03-.004a.022.022 0 0 0 .005.012.028.028 0 0 0 .012.007.06.06 0 0 0 .027.003.04.04 0 0 0 .02-.008.037.037 0 0 0 .013-.014.058.058 0 0 0 .007-.02v-.027l-.002-.009a.05.05 0 0 1-.018.023.055.055 0 0 1-.026.011.072.072 0 0 1-.077-.04.103.103 0 0 1-.01-.053c0-.007 0-.014.002-.02a.09.09 0 0 1 .007-.02.06.06 0 0 1 .013-.017.055.055 0 0 1 .018-.012.072.072 0 0 1 .039-.008.072.072 0 0 1 .027.01.064.064 0 0 1 .011.01l-.003-.022.026-.004zm-.075 0a.043.043 0 0 0 .022-.008.053.053 0 0 0 .013-.016.06.06 0 0 0 .005-.021v-.023a.085.085 0 0 0-.006-.02.057.057 0 0 0-.01-.018.044.044 0 0 0-.04-.013.047.047 0 0 0-.02.008.042.042 0 0 0-.014.015.058.058 0 0 0-.006.02.098.098 0 0 0 .01.05.083.083 0 0 0 .007.012.043.043 0 0 0 .023.014h.016" fill="#1a1818" />
          </g>
          <g clip-path="url(#T)">
            <path d="M15.844 12.295h-.016a.043.043 0 0 1-.023-.014.083.083 0 0 1-.008-.012.149.149 0 0 1-.006-.013.114.114 0 0 1-.003-.037c.001-.008.003-.014.006-.02a.042.042 0 0 1 .013-.015.047.047 0 0 1 .022-.008.044.044 0 0 1 .039.013c.004.006.008.011.01.018a.085.085 0 0 1 0 .064.053.053 0 0 1-.012.016.043.043 0 0 1-.022.008zm.055-.15-.026.003.003.022a.064.064 0 0 0-.025-.016.072.072 0 0 0-.013-.004h-.013a.072.072 0 0 0-.026.008.055.055 0 0 0-.018.012.06.06 0 0 0-.013.017.09.09 0 0 0-.01.04.115.115 0 0 0 .01.053.072.072 0 0 0 .077.04.055.055 0 0 0 .045-.034l.002.009a.115.115 0 0 1 0 .026.058.058 0 0 1-.007.02.037.037 0 0 1-.013.015.04.04 0 0 1-.02.007.06.06 0 0 1-.027-.002.028.028 0 0 1-.012-.007.022.022 0 0 1-.006-.012l-.029.004a.046.046 0 0 0 .016.027.071.071 0 0 0 .028.013.09.09 0 0 0 .061-.008.07.07 0 0 0 .023-.018.072.072 0 0 0 .012-.027.106.106 0 0 0 .001-.038z" fill="none" stroke="#1a1818" stroke-miterlimit="20" stroke-width=".1" />
          </g>
          <g clip-path="url(#T)">
            <path d="M16.09 12.22a.067.067 0 0 1-.039.057.085.085 0 0 1-.026.006.084.084 0 0 1-.035-.002.068.068 0 0 1-.027-.016.075.075 0 0 1-.018-.025.124.124 0 0 1-.01-.035.108.108 0 0 1 .002-.035.09.09 0 0 1 .012-.03.084.084 0 0 1 .022-.02.08.08 0 0 1 .031-.01c.01-.002.019-.001.027 0a.069.069 0 0 1 .022.01.079.079 0 0 1 .027.034.193.193 0 0 1 .007.021.1.1 0 0 1 .004.02l-.122.016c0 .007.002.014.005.02a.049.049 0 0 0 .011.015c.005.004.01.008.018.01a.054.054 0 0 0 .022.001.045.045 0 0 0 .026-.011.03.03 0 0 0 .008-.01.031.031 0 0 0 .004-.013zm-.086-.085a.048.048 0 0 0-.018.006.041.041 0 0 0-.013.012.048.048 0 0 0-.008.016c-.001.005-.002.011-.001.018l.092-.011a.06.06 0 0 0-.007-.018.043.043 0 0 0-.011-.013.043.043 0 0 0-.034-.01" fill="#1a1818" />
          </g>
          <g clip-path="url(#T)">
            <path d="M16.004 12.135a.043.043 0 0 1 .034.01.043.043 0 0 1 .011.013.06.06 0 0 1 .007.018l-.092.011.001-.018a.048.048 0 0 1 .008-.016.041.041 0 0 1 .013-.012.048.048 0 0 1 .018-.006zm.057.088a.031.031 0 0 1-.004.012.03.03 0 0 1-.008.01.045.045 0 0 1-.026.012c-.008.001-.016 0-.022-.001a.043.043 0 0 1-.018-.01.049.049 0 0 1-.01-.015.065.065 0 0 1-.006-.02l.122-.015a.1.1 0 0 0-.004-.02.193.193 0 0 0-.007-.022.085.085 0 0 0-.027-.034.069.069 0 0 0-.049-.01.08.08 0 0 0-.03.01.084.084 0 0 0-.023.02.09.09 0 0 0-.012.03.108.108 0 0 0-.002.035.124.124 0 0 0 .01.035c.004.01.01.019.018.025a.068.068 0 0 0 .027.016c.01.003.022.004.035.002a.085.085 0 0 0 .026-.007.07.07 0 0 0 .033-.033.07.07 0 0 0 .006-.024z" fill="none" stroke="#1a1818" stroke-miterlimit="20" stroke-width=".1" />
          </g>
          <g clip-path="url(#T)">
            <path d="m16.13 12.084.003.035a.057.057 0 0 1 .036-.042.087.087 0 0 1 .021-.004l.004.03a.073.073 0 0 0-.027.008.049.049 0 0 0-.026.034.078.078 0 0 0 0 .024l.01.08-.03.004-.019-.166z" fill="#1a1818" />
          </g>
          <g clip-path="url(#T)">
            <path d="m16.13 12.084.003.035a.057.057 0 0 1 .036-.042.087.087 0 0 1 .021-.004l.004.03a.073.073 0 0 0-.027.008.049.049 0 0 0-.026.034.078.078 0 0 0 0 .024l.01.08-.03.004-.019-.166z" fill="none" stroke="#1a1818" stroke-miterlimit="20" stroke-width=".1" />
          </g>
          <g clip-path="url(#T)">
            <path d="M10.424 12.302c0 .033-.038.06-.085.06-.047 0-.086-.027-.086-.06v-.156c0-.033.039-.06.086-.06.047 0 .085.027.085.06z" fill="#facd97" />
          </g>
          <g clip-path="url(#T)">
            <path d="M10.73 11.942a.098.098 0 1 1-.197 0 .098.098 0 0 1 .197 0" fill="#facd97" />
          </g>
          <g clip-path="url(#T)">
            <path d="M10.081 11.942a.098.098 0 1 1-.098-.099c.055 0 .098.045.098.1" fill="#facd97" />
          </g>
          <g clip-path="url(#T)">
            <path d="M9.978 11.92v-.362h.705v.363z" fill="#331e12" />
          </g>
          <g clip-path="url(#T)">
            <path d="M10.637 11.746a.306.306 0 1 0-.613 0v.19a.306.306 0 1 0 .613 0z" fill="#facd97" />
          </g>
          <g clip-path="url(#T)">
            <path d="M10.174 11.9a.043.043 0 1 1-.086 0c0-.025.02-.044.043-.044.024 0 .043.02.043.043" fill="#331e12" />
          </g>
          <g clip-path="url(#T)">
            <path d="M10.092 11.801h.078" fill="none" stroke-linejoin="round" stroke-linecap="round" stroke="#331e12" stroke-miterlimit="20" stroke-width=".236" />
          </g>
          <g clip-path="url(#T)">
            <path d="M10.527 11.9c0 .023-.02.042-.044.042a.043.043 0 0 1 0-.087c.024 0 .044.02.044.044" fill="#331e12" />
          </g>
          <g clip-path="url(#T)">
            <path d="M10.444 11.801h.078" fill="none" stroke-linejoin="round" stroke-linecap="round" stroke="#331e12" stroke-miterlimit="20" stroke-width=".236" />
          </g>
          <g clip-path="url(#T)">
            <path d="M10.237 12.054c0 .031.042.057.093.057.052 0 .093-.026.093-.057z" fill="#d6b27a" />
          </g>
          <g clip-path="url(#T)">
            <path d="M10.357 11.68h.388a.594.594 0 0 1-.027-.12c0-.177-.16-.322-.361-.332z" fill="#fff" />
          </g>
          <g clip-path="url(#T)">
            <path d="M10.435 11.239c.042.009.08.025.114.045v.246a.06.06 0 1 1-.12 0v-.267c0-.008.002-.017.006-.024" fill="#f0f0f0" />
          </g>
          <g clip-path="url(#T)">
            <path d="M10.745 11.68a.595.595 0 0 1-.027-.12c0-.184-.172-.333-.384-.333-.212 0-.384.149-.384.333 0 .02-.018.084-.032.12z" fill="#f5f5f5" />
          </g>
          <g clip-path="url(#T)">
            <path d="M10.329 11.348a.1.1 0 0 0 .099-.1.1.1 0 0 0-.2 0 .1.1 0 0 0 .1.1" fill="#f5f5f5" />
          </g>
          <g clip-path="url(#T)">
            <path d="M10.108 11.291c.036-.018.074-.04.118-.05a.062.062 0 0 1 .005.023v.221c0 .028-.028.05-.062.05-.033 0-.061-.022-.061-.05z" fill="#efefef" />
          </g>
          <g clip-path="url(#T)">
            <path d="M10.437 11.239c.042.008.078.03.113.046v.201c0 .027-.027.049-.06.049-.034 0-.06-.022-.06-.049v-.218a.09.09 0 0 1 .007-.03" fill="#efefef" />
          </g>
          <g clip-path="url(#T)">
            <path d="M10.686 11.69c0 .018-.016.032-.036.032h-.748c-.02 0-.036-.014-.036-.032 0-.018.016-.032.036-.032h.748c.02 0 .036.014.036.032" fill="#efefef" />
          </g>
          <g clip-path="url(#T)">
            <path d="M10.757 11.658h-.4v.064h.4c.024 0 .043-.014.043-.032 0-.018-.02-.032-.043-.032" fill="#efefef" />
          </g>
          <g clip-path="url(#T)">
            <path d="M10.328 11.589a.038.038 0 0 0-.016.003l.008-.021h-.07l-.002.01h.02l-.013.038h.014l.014-.038h.02l-.014.038h.014l.007-.02a.026.026 0 0 1 .012-.003c.003 0 .004.002.003.004l-.007.02h.015l.006-.02c.003-.008-.002-.011-.011-.011" fill="#003b87" />
          </g>
          <g clip-path="url(#T)">
            <path d="M10.372 11.61a.027.027 0 0 1-.01.003c-.004 0-.007-.002-.006-.005 0-.004.005-.013.021-.012zm.022-.02-.016-.001c-.024 0-.034.01-.036.018-.001.008.005.013.015.013.005 0 .009 0 .013-.004v.003h.013z" fill="#003b87" />
          </g>
          <g clip-path="url(#T)">
            <path d="m10.401 11.591-.01.028h.014l.012-.033a.035.035 0 0 1-.016.005" fill="#003b87" />
          </g>
          <g clip-path="url(#T)">
            <path d="m10.474 11.591-.01.028h.014l.012-.033a.035.035 0 0 1-.016.005" fill="#003b87" />
          </g>
          <g clip-path="url(#T)">
            <path d="m10.502 11.576-.015.043h.013l.018-.048a.035.035 0 0 1-.016.005" fill="#003b87" />
          </g>
          <g clip-path="url(#T)">
            <path d="M10.234 11.575c-.09-.032-.087-.108-.087-.108s-.053.13.064.174z" fill="#d10071" />
          </g>
          <g clip-path="url(#T)">
            <path d="M10.251 11.53c-.057-.02-.056-.063-.056-.063s-.026.08.041.104z" fill="#d10071" />
          </g>
          <g clip-path="url(#T)">
            <path d="M10.443 11.596a.014.014 0 0 0-.014.01c0 .005.004.007.009.007a.014.014 0 0 0 .013-.01c0-.004-.002-.007-.008-.007m-.007.025c-.013 0-.023-.007-.02-.015 0-.01.013-.017.028-.017.013 0 .022.006.02.014 0 .01-.013.018-.028.018" fill="#003b87" />
          </g>
          <g clip-path="url(#T)">
            <path d="M10.247 12.006c.028.001.05-.013.052-.036a.282.282 0 0 1 .02-.086c.004.008.011.03.019.086.003.023.023.037.052.036a.285.285 0 0 0 .19-.08.407.407 0 0 1-.027.076c-.042.087-.12.132-.23.132h-.01c-.11 0-.187-.045-.229-.132a.355.355 0 0 1-.026-.075.287.287 0 0 0 .189.08m.382-.245a.029.029 0 0 0-.02-.014h-.001c-.04-.034-.247-.036-.29-.036-.041 0-.248.002-.29.036a.03.03 0 0 0-.02.014c-.009.015-.003.035-.003.037l.001.003.009.07c0 .005.003.009.007.011a.43.43 0 0 0 .038.132c.032.066.101.146.253.146h.011c.151 0 .222-.08.253-.146a.414.414 0 0 0 .037-.132.013.013 0 0 0 .008-.01l.009-.07v-.004c.001-.002.006-.022-.002-.037" fill="#1a1718" />
          </g>
          <g clip-path="url(#T)">
            <path d="M10.604 11.714s.008.064.008.12c0 .057-.025.124-.091.124h-.083c-.043 0-.069-.102-.112-.102-.044 0-.057.102-.1.102h-.095c-.067 0-.092-.067-.092-.123 0-.057.008-.121.008-.121z" fill="#e0d2c3" />
          </g>
          <g clip-path="url(#T)">
            <path d="M10.044 11.798a.05.05 0 1 1-.099 0 .05.05 0 0 1 .1 0" fill="#282c32" />
          </g>
          <g clip-path="url(#T)">
            <path d="M10.708 11.801a.05.05 0 1 1-.1 0 .05.05 0 0 1 .1 0" fill="#282c32" />
          </g>
          <g clip-path="url(#T)">
            <path d="M9.972 11.875v-.148h.057v.148z" fill="#181111" />
          </g>
          <g clip-path="url(#T)">
            <path d="M10.623 11.875v-.148h.058v.148z" fill="#181111" />
          </g>
          <g clip-path="url(#T)">
            <g clip-path="url(#U)">
              <path d="m10.24 11.714-.146.239.134.005.08-.112.108-.132z" fill="#fff" />
            </g>
          </g>
          <g clip-path="url(#T)">
            <g clip-path="url(#V)">
              <path d="m10.493 11.714-.103.195.066.055.12-.25z" fill="#fff" />
            </g>
          </g>
          <g clip-path="url(#T)">
            <path d="M10.324 11.849h.001c.033 0 .056.033.078.064.016.021.034.048.047.048h.08c.074 0 .075-.103.075-.114 0-.04-.004-.086-.006-.111h-.549c-.002.025-.006.07-.006.11 0 .012.002.115.076.115h.093c.012 0 .026-.026.038-.046.019-.031.04-.066.073-.066m.191.137h-.074c-.02-.001-.035-.03-.055-.058-.015-.018-.034-.059-.06-.057-.012 0-.036.02-.047.038-.017.027-.027.06-.059.077h-.086c-.075 0-.109-.071-.109-.137 0-.054.008-.115.009-.117a.019.019 0 0 1 .018-.017h.545c.01 0 .018.007.019.017 0 .002.008.063.008.117 0 .066-.034.137-.109.137" fill="#282c32" />
          </g>
          <g clip-path="url(#T)">
            <path d="M10.246 12.209v-.086h.147v.086z" fill="#ebb263" />
          </g>
          <g clip-path="url(#T)">
            <path d="m10.325 12.209.001.049v-.05z" fill="#171717" />
          </g>
          <g clip-path="url(#T)">
            <path d="M10.215 12.152a.229.229 0 0 0-.082.023c0 .005.135.093.144.091a.271.271 0 0 0 .049-.052v-.011a.763.763 0 0 0-.111-.051" fill="#171717" />
          </g>
          <g clip-path="url(#T)">
            <path d="m10.343 12.209-.001.049v-.05z" fill="#171717" />
          </g>
          <g clip-path="url(#T)">
            <path d="M10.453 12.152a.22.22 0 0 1 .082.022c0 .005-.135.094-.144.092a.259.259 0 0 1-.049-.052v-.011a.705.705 0 0 1 .111-.051" fill="#171717" />
          </g>
          <g clip-path="url(#T)">
            <path d="m10.618 12.187-.152-.036.02-.107.153.035z" fill="#1a1718" />
          </g>
        </g>
        <g>
          <g transform="rotate(-78.077 10.585 12.125)" clip-path="url(#W)">
            <path d="M10.512 12.163v-.078h.151v.078z" fill="url(#X)" />
          </g>
        </g>
        <g>
          <g clip-path="url(#Y)">
            <path d="M10.7 12.068v-.003c.003-.015-.007-.03-.022-.033l-.055-.013c-.015-.003-.018.009-.02.023l-.03.154c-.002.015-.004.026.012.03l.055.013a.026.026 0 0 0 .032-.02v-.003c.005-.001.01-.004.01-.01a.011.011 0 0 0-.006-.012v-.003c.006 0 .01-.004.01-.01a.013.013 0 0 0-.005-.013v-.002a.011.011 0 0 0 .01-.01.011.011 0 0 0-.005-.012v-.004a.01.01 0 0 0 .01-.009.011.011 0 0 0-.006-.013v-.002c.005 0 .01-.004.01-.01.002-.005 0-.01-.005-.012v-.004a.01.01 0 0 0 .01-.01c.001-.004 0-.01-.005-.012" fill="#323233" />
          </g>
          <g clip-path="url(#Y)">
            <path d="m10.034 12.201.153-.036-.02-.107-.153.036z" fill="#1a1718" />
          </g>
        </g>
        <g>
          <g transform="rotate(-12.035 10.065 12.135)" clip-path="url(#Z)">
            <path d="M10.025 12.214v-.151h.08v.151z" fill="url(#aa)" />
          </g>
        </g>
        <g>
          <g clip-path="url(#ab)">
            <path d="m10.074 12.215-.028-.144c-.002-.014-.005-.025-.019-.022l-.052.012a.027.027 0 0 0-.02.031v.003a.012.012 0 0 0-.006.013c.001.005.006.008.01.008v.003a.01.01 0 0 0-.005.012c.001.005.005.009.01.009v.002a.013.013 0 0 0-.006.013c.002.005.005.008.01.008v.003c-.004.002-.006.007-.005.012a.01.01 0 0 0 .009.009v.002a.013.013 0 0 0-.005.012v.001c.002.005.005.009.01.009v.003c-.004.001-.006.006-.005.012a.01.01 0 0 0 .009.008v.003a.025.025 0 0 0 .03.019l.052-.013c.015-.003.013-.014.01-.028" fill="#323233" />
          </g>
          <g clip-path="url(#ab)">
            <path d="M10.46 12.153h-.282v-.14h.282z" fill="#323233" />
          </g>
          <g clip-path="url(#ab)">
            <path d="M10.32 12.013a.484.484 0 0 0-.152.024c.006.008.01.035.01.037a.555.555 0 0 1 .143-.021c.053 0 .106.01.139.02 0-.003.006-.03.012-.036a.473.473 0 0 0-.151-.024" fill="#fff" />
          </g>
          <g clip-path="url(#ab)">
            <path d="M10.492 12.088c0 .077-.08.139-.178.14-.098 0-.178-.063-.178-.14 0-.076.08-.138.178-.138.099 0 .178.062.178.138" fill="#323233" />
          </g>
          <g clip-path="url(#ab)">
            <path d="M10.26 12.03a.024.024 0 0 1-.05 0c0-.012.012-.024.025-.024.013 0 .024.012.024.025" fill="#1a1718" />
          </g>
          <g clip-path="url(#ab)">
            <path d="M10.358 12.013c0 .013-.01.025-.024.025a.024.024 0 0 1 0-.05c.014 0 .024.012.024.025" fill="#1a1718" />
          </g>
          <g clip-path="url(#ab)">
            <path d="M10.437 12.044a.024.024 0 0 1-.024.024.025.025 0 0 1-.025-.024c0-.014.011-.025.025-.025.013 0 .024.011.024.025" fill="#1a1718" />
          </g>
          <g clip-path="url(#ab)">
            <path d="M10.453 12.12c0 .013-.01.024-.024.024a.024.024 0 0 1-.024-.025c0-.013.01-.024.024-.024.013 0 .024.011.024.024" fill="#1a1718" />
          </g>
          <g clip-path="url(#ab)">
            <path d="M10.383 12.168c0 .014-.01.024-.024.024a.024.024 0 0 1-.025-.023c0-.014.011-.025.025-.025.013 0 .024.01.024.024" fill="#1a1718" />
          </g>
          <g clip-path="url(#ab)">
            <path d="M10.292 12.169a.024.024 0 0 1-.024.024.024.024 0 1 1 0-.049c.013 0 .024.01.024.025" fill="#1a1718" />
          </g>
          <g clip-path="url(#ab)">
            <path d="M10.227 12.107a.024.024 0 1 1-.049 0c0-.013.011-.024.025-.024.013 0 .024.011.024.024" fill="#1a1718" />
          </g>
          <g clip-path="url(#ab)">
            <path d="M10.304 12.092a.024.024 0 0 1-.024.025.024.024 0 0 1-.024-.025.024.024 0 1 1 .048 0" fill="#1a1718" />
          </g>
          <g clip-path="url(#ab)">
            <path d="M10.383 12.095a.024.024 0 0 1-.024.024.024.024 0 0 1-.025-.024.024.024 0 1 1 .049 0" fill="#1a1718" />
          </g>
          <g clip-path="url(#ab)">
            <path d="M11.57 12.964s.129.05.096.127c-.034.077-.06.115-.185.035s.09-.162.09-.162" fill="#facd97" />
          </g>
          <g clip-path="url(#ab)">
            <path d="M11.585 12.97s-.086-.033-.107-.044c-.085-.044-.232-.191-.295-.226a2.57 2.57 0 0 0-.307-.156l-.118.156s.13.084.363.161c.106.035.322.217.322.217z" fill="#facd97" />
          </g>
          <g clip-path="url(#ab)">
            <path d="M9.542 13.201s.117-.273.236-.315c.262-.095.3-.171.3-.171l-.16-.154s-.033.011-.245.155a.607.607 0 0 0-.269.435.722.722 0 0 0 .01.127l-.026.04s0 .008.004.018c.01.04.042.133.116.117.094-.02.141-.04.08-.198-.013-.032-.029-.048-.046-.054" fill="#facd97" />
          </g>
          <g clip-path="url(#ab)">
            <path d="M10.6 12.403s-.161-.067-.172-.118c-.011-.05-.092-.02-.092-.02s-.083-.028-.092.023c-.01.051-.168.122-.168.122.032.048.249.226.266.228h.003c.017-.003.223-.186.254-.235" fill="#facd97" />
          </g>
          <g clip-path="url(#ab)">
            <path d="m10.689 12.717-.002-.018c-.022-.19.193-.092.12-.176-.074-.085-.212-.134-.212-.134s-.08.073-.267.075c-.186.003-.164-.1-.164-.1s-.18.064-.296.122c-.151.075-.26.222-.316.302-.003.004-.233.31-.175.35.066.044.018.008.192.049.025.005.028-.225.364-.369l.055-.017.039.55.622.046.053-.553z" fill="#d6b27a" />
          </g>
          <g clip-path="url(#ab)">
            <path d="M11.472 12.894c-.13-.083-.538-.38-.668-.446-.1-.051-.302-.103-.302-.103s.006.112-.173.12l.018.877.313.012.086-.629s.49.24.625.316c0 0 .153-.113.1-.147" fill="#d6b27a" />
          </g>
          <g clip-path="url(#ab)">
            <path d="m10.645 13.386-.005-.015h-.61v.055c-.144.359-.161 1.043-.155 1.27l.275-.009c-.01-.332.057-.835.16-1.087h.088c.1.256.155.758.145 1.087l.275.008c.006-.235-.012-.963-.173-1.309" fill="#d6b27a" />
          </g>
          <g clip-path="url(#ab)">
            <path d="M10.187 14.768a.095.095 0 0 0-.09-.124h-.165a.095.095 0 0 0-.09.124z" fill="#413b31" />
          </g>
          <g clip-path="url(#ab)">
            <path d="M10.86 14.768a.095.095 0 0 0-.09-.124h-.165a.095.095 0 0 0-.09.124z" fill="#413b31" />
          </g>
          <g clip-path="url(#ab)">
            <path d="M10.224 12.245v.009c0 .045.05.082.111.082s.111-.045.111-.09c0 0-.055-.005-.11-.005s-.11.004-.112.004" fill="#ffe4ba" />
          </g>
          <g clip-path="url(#ab)">
            <path d="M10.016 13.428v-.117h.651v.117z" fill="#dba179" />
          </g>
          <g clip-path="url(#ab)">
            <path d="M10.276 13.439v-.143h.14v.143z" fill="none" stroke="#442c30" stroke-miterlimit="20" stroke-width=".28" />
          </g>
          <g clip-path="url(#ab)">
            <path d="M10.379 13.374v-.014h.05v.014z" fill="none" stroke="#442c30" stroke-miterlimit="20" stroke-width=".28" />
          </g>
          <g clip-path="url(#ab)">
            <path d="m10.645 13.386-.005-.015h-.295v.23h.053c.1.255.155.757.145 1.086l.275.008c.006-.235-.012-.963-.173-1.309" fill="#d6b27a" />
          </g>
          <g clip-path="url(#ab)">
            <path d="M10.86 14.768a.095.095 0 0 0-.09-.124h-.165a.095.095 0 0 0-.09.124z" fill="#413b31" />
          </g>
          <g clip-path="url(#ab)">
            <path d="M10.345 12.24v.095c.057-.004.101-.047.101-.09 0 0-.049-.004-.1-.004" fill="#ffe4ba" />
          </g>
          <g clip-path="url(#ab)">
            <path d="M10.345 13.428v-.117h.322v.117z" fill="#dba179" />
          </g>
          <g clip-path="url(#ab)">
            <path d="M10.345 13.439v-.143h.07v.143z" fill="none" stroke="#442c30" stroke-miterlimit="20" stroke-width=".28" />
          </g>
          <g clip-path="url(#ab)">
            <path d="M10.379 13.374v-.014h.05v.014z" fill="none" stroke="#442c30" stroke-miterlimit="20" stroke-width=".28" />
          </g>
          <g clip-path="url(#ab)">
            <path d="M10.474 12.711v.058c0 .022.018.04.04.04h.04a.04.04 0 0 0 .04-.04v-.058z" fill="#c4c4c3" />
          </g>
        </g>
      </g>
    </g>
  </g>
</svg>