<svg width="26" height="34" xmlns="http://www.w3.org/2000/svg">
  <defs>
    <clipPath id="b">
      <path d="M7.007 16.93V6.117H18.98V16.93z" />
    </clipPath>
    <filter id="a" width="45.1" height="55" x="-9.56" y="-11.07" filterUnits="userSpaceOnUse">
      <feOffset dy="1" result="FeOffset3835Out" in="SourceGraphic" />
      <feGaussianBlur stdDeviation="0.8 0.8" result="FeGaussianBlur3836Out" in="FeOffset3835Out" />
    </filter>
  </defs>
  <g filter="url(#a)">
    <path d="M23.542 12.322c0 7.504-10.549 18.613-10.549 18.613S2.445 19.825 2.445 12.322C2.445 4.818 7.167.935 12.993.935s10.549 3.883 10.549 11.387" fill="none" stroke="#000" stroke-opacity=".16" stroke-width=".5" />
  </g>
  <path d="M23.542 12.322c0 7.504-10.549 18.613-10.549 18.613S2.445 19.825 2.445 12.322C2.445 4.818 7.167.935 12.993.935s10.549 3.883 10.549 11.387" fill="#b2654a" />
  <path d="M23.542 12.322c0 7.504-10.549 18.613-10.549 18.613S2.445 19.825 2.445 12.322C2.445 4.818 7.167.935 12.993.935s10.549 3.883 10.549 11.387" fill="none" stroke="#fff" stroke-miterlimit="20" stroke-width=".5" />
  <g>
    <path d="M12.993 3.669a8.365 8.365 0 0 0 0 16.73 8.365 8.365 0 1 0 0-16.73" fill="#fff" />
    <g>
      <g clip-path="url(#b)">
        <path d="M10.524 11.288c.03.02.065.035.101.043l1.623.35c.14.03.265-.05.278-.179.013-.129-.09-.258-.23-.288l-1.412-.306-.164-1.692a.293.293 0 0 0-.277-.25c-.14-.007-.245.094-.231.228l.183 1.892a.28.28 0 0 0 .129.202" fill="#fbcf98" />
      </g>
      <g clip-path="url(#b)">
        <path d="M10.585 11.286a.368.368 0 0 0 .122.067l.915.294c.173.055.343-.033.38-.196.036-.164-.075-.341-.248-.396l-.655-.21.036-1.419a.363.363 0 0 0-.312-.353c-.176-.025-.322.094-.327.265l-.043 1.675a.349.349 0 0 0 .132.273" fill="#d6b27a" />
      </g>
      <g clip-path="url(#b)">
        <path d="m10.692 9.051.194 1.01a.327.327 0 0 0 .329.253c.137-.005.233-.104.233-.229v-1c-.001-.196-.171-.377-.381-.404-.211-.028-.38.11-.382.306.001.02.004.044.007.064" fill="#1c2a39" />
      </g>
      <g clip-path="url(#b)">
        <path d="m10.586 11.764-1.669-.982 1.371-2.33c.125-.212.427-.267.675-.122l.773.455c.248.146.346.437.221.65z" />
      </g>
      <g clip-path="url(#b)">
        <path d="M11.685 13.514c.195-.108.304-.262.243-.344l-1.524-2.054c-.062-.082-.268-.063-.464.045-.195.107-.305.26-.243.342l1.523 2.055c.063.082.27.062.465-.044" />
      </g>
      <g clip-path="url(#b)">
        <path d="M11.613 16.547c.232-.001.418-.102.418-.225l-.037-3.054c-.002-.122-.19-.22-.422-.217-.232.002-.419.102-.417.224l.036 3.055c.002.123.19.22.422.217" />
      </g>
      <g clip-path="url(#b)">
        <path d="M8.83 13.72c.23.025.428-.032.442-.129l.358-2.417c.014-.097-.16-.196-.39-.22-.23-.026-.427.032-.442.129L8.44 13.5c-.014.097.161.196.39.22" />
      </g>
      <g clip-path="url(#b)">
        <path d="M7.348 16.58c.213.078.43.052.487-.06l1.396-2.81c.056-.112-.072-.266-.285-.345-.212-.078-.43-.05-.486.061l-1.397 2.81c-.055.112.072.267.285.344" />
      </g>
      <g clip-path="url(#b)">
        <path d="M12.991 16.27c-.016.2-.217.353-.45.34l-1.417-.082.055-.726 1.417.081c.234.014.41.188.395.387" fill="#1a1818" />
      </g>
      <g clip-path="url(#b)">
        <path d="M8.772 16.71c-.093.185-.342.27-.556.19l-1.028-.381c-.152-.058-.222-.21-.156-.34l.217-.432 1.303.486c.214.079.313.293.22.478" fill="#1a1818" />
      </g>
      <g clip-path="url(#b)">
        <path d="m9.728 12.127-.466-.208c-.383-.17-.578-.564-.438-.877l.22-.494 1.85.825-.22.494c-.14.313-.564.43-.946.26" />
      </g>
      <g clip-path="url(#b)">
        <path d="m11.844 9.055-.678-.789c-.041-.046-.037-.11.01-.143l.16-.114a.11.11 0 0 1 .088-.016.132.132 0 0 1 .081.053l.477.664c.024.034.028.076.008.108z" fill="#e0e0df" />
      </g>
      <g clip-path="url(#b)">
        <path d="M12.82 8.749c-.02.009-.04.016-.058.025a1.212 1.212 0 0 1-.117.04c-.018.005-.035.01-.052.013l-.03.006-.048.008-.045.005a.511.511 0 0 1-.06.004c-.011.002-.024 0-.039 0-.025 0-.05 0-.075-.003a.89.89 0 0 1-.258-.064c-.014-.006-.027-.01-.04-.017a1.117 1.117 0 0 1-.086-.046l-.01-.005c-.5-.305-.611-.978-.158-1.704.005-.008.01-.018.016-.025.013-.022.026-.042.041-.063.02-.033.042-.065.064-.094l.01-.016c.006-.007.012-.014.015-.02a.174.174 0 0 1 .015-.02l.004-.005c.489-.661.904-.643 1.412-.333l.007.005.004.003.054.034.063.043.033.024a.278.278 0 0 1 .031.023.36.36 0 0 1 .033.028.043.043 0 0 1 .015.013.931.931 0 0 1 .117.115l.025.03c.01.016.021.029.032.044a.763.763 0 0 1 .04.07l.016.032.017.041a.363.363 0 0 1 .026.09.707.707 0 0 1 .014.214.939.939 0 0 1-.034.198 1.984 1.984 0 0 1-.159.393l-.003.006-.012.022-.011.022-.01.017-.011.02-.045.077h.001l-.02.033c-.006.011-.012.022-.019.031-.004.009-.01.017-.016.026-.2.322-.44.542-.69.66" fill="#ffcf9d" />
      </g>
      <g clip-path="url(#b)">
        <path d="m13.332 6.442-1.42 2.279c.5.294 1.149.09 1.598-.631.56-.9.38-1.303-.178-1.648" fill="#ffd8aa" />
      </g>
      <g clip-path="url(#b)">
        <path d="M11.81 8.054c-.109.035-.347-.08-.347-.08-.242-.369-.008-.806.28-1.129.287-.323 1.54.553 1.54.553l-.61.504-.441-.23s-.13.287-.421.382" fill="#473a39" />
      </g>
      <g clip-path="url(#b)">
        <path d="M12.584 7.904c-.036-.214-.18-.387-.32-.386-.143 0-.229.174-.193.387.036.214.18.387.32.386.142 0 .228-.173.193-.387" fill="#ffd8aa" />
      </g>
      <g clip-path="url(#b)">
        <path d="m11.712 9.069-.736-.921.206-.148a.115.115 0 0 1 .091-.015.143.143 0 0 1 .083.054l.49.68c.026.035.03.078.01.11z" fill="#ededed" />
      </g>
      <g clip-path="url(#b)">
        <path d="M13.894 8.213a.954.954 0 0 1-.144-.046c-.026-.01-.054-.02-.085-.035a8.39 8.39 0 0 1-.996-.533l-.013-.007a8.874 8.874 0 0 1-.941-.647 1.473 1.473 0 0 1-.167-.157c-.042-.045-.06-.079-.048-.096.018-.027.104-.01.238.042l.068.027.029.01c.247.109.608.3.997.538l.007.005.006.003a8.6 8.6 0 0 1 .947.656c.02.015.037.03.052.044.108.097.164.164.146.192-.01.017-.043.017-.096.004" fill="#d3d8d5" />
      </g>
      <g clip-path="url(#b)">
        <path d="M13.567 8.05c-.024-.01-.05-.02-.077-.033h-.002a7.817 7.817 0 0 1-.915-.49l-.012-.006a8.136 8.136 0 0 1-.864-.596 1.117 1.117 0 0 1-.066-.055l.046-.072.022-.036.014-.022.005-.009.007-.013.121-.194a.791.791 0 0 1 .387-.33l.056-.019c.026-.007.052-.015.077-.02a.606.606 0 0 1 .126-.018c.112-.01.228 0 .344.025.027.007.053.013.078.021l.074.022c.014.006.03.01.044.017l.038.014.067.03c.053.024.104.052.155.082l.033.022.034.022c.002 0 .004.003.006.005h.003l.019.015c.01.006.02.013.027.02a.619.619 0 0 1 .02.014l.029.024.035.027.048.045c.005.005.013.01.017.015a.42.42 0 0 1 .038.04l.009.008a.835.835 0 0 1 .037.041l.004.006c.01.01.018.02.026.03a.42.42 0 0 1 .018.023c.003.003.007.007.008.01a.776.776 0 0 1 .039.054c.01.013.017.027.026.04l.022.038.012.022.02.04a.393.393 0 0 1 .017.037l.012.027c0 .003.001.007.003.01L13.86 7c.002.004.003.009.006.013.003.012.007.02.009.031a.303.303 0 0 1 .01.037l.001.007c.001.002.003.003.002.004l.006.03v.003a.026.026 0 0 1 .003.008c0 .007.002.013.003.02l.001.008.001.01c.002.01.004.018.004.028v.007a.664.664 0 0 0 .004.041v.011c.002.015.001.03 0 .045v.006l-.002.031v.005l-.003.016-.001.012a1.274 1.274 0 0 1-.005.04l-.007.028c0 .007-.002.012-.004.02a.034.034 0 0 1-.004.011c-.002.011-.006.022-.01.033-.001.01-.005.019-.008.03a.517.517 0 0 1-.02.048l-.013.03-.015.03-.035.061-.122.195-.007.011-.007.01-.012.023-.023.033z" fill="#fff" />
      </g>
      <g clip-path="url(#b)">
        <path d="m13.783 7.705-.135.216a15.586 15.586 0 0 1-1.68-1l-.018-.014-.238-.167.134-.215a.809.809 0 0 1 .387-.33l.056-.02c.64-.203 1.54.355 1.617 1.015l.004.065a.78.78 0 0 1-.127.45" fill="#fff" />
      </g>
      <g clip-path="url(#b)">
        <path d="m13.783 7.705-.135.216a15.586 15.586 0 0 1-1.68-1l-.018-.014-.238-.167.134-.215a.809.809 0 0 1 .387-.33l.056-.02c.64-.203 1.54.355 1.617 1.015l.004.065a.78.78 0 0 1-.127.45z" fill="none" stroke="#d3d8d5" stroke-miterlimit="20" stroke-width=".25" />
      </g>
      <g clip-path="url(#b)">
        <path d="m13.647 7.921.007-.01.007-.011-.002-.001-.052-.027-.028-.015a9.504 9.504 0 0 1-.199-.104l-.052-.03a16.904 16.904 0 0 1-.645-.371c-.002-.002-.003-.004-.005-.004a18.172 18.172 0 0 1-.653-.42 10.377 10.377 0 0 1-.297-.21c-.002.002-.002.002-.003 0l-.007.013-.006.01-.013.021c.024.016.049.034.072.052l.088.06a5.497 5.497 0 0 0 .19.13 16.153 16.153 0 0 0 1.305.791l.11.058.09.049c.026.013.054.027.08.042z" fill="#edeeef" />
      </g>
      <g clip-path="url(#b)">
        <path d="m13.38 7.753.057-.091a.664.664 0 0 0 .105-.34l-.002-.047a.685.685 0 0 0-.121-.338c-.223-.33-.676-.499-1.01-.374a.655.655 0 0 0-.328.275l-.056.09L12 6.97a.46.46 0 0 0 .05.034l.026-.044.058-.091a.616.616 0 0 1 .306-.257c.308-.114.726.042.932.348a.621.621 0 0 1 .112.355.616.616 0 0 1-.098.317l-.057.091-.028.043.055.03z" fill="#edeeef" />
      </g>
      <g clip-path="url(#b)">
        <path d="m10.598 8.33.377-.182.214.313z" fill="#4d4d4d" />
      </g>
      <g clip-path="url(#b)">
        <path d="M12.735 7.77c.023.062-.015.122-.085.134-.07.013-.144-.026-.167-.086-.022-.06.015-.121.085-.134.069-.012.144.026.167.087" fill="#3f4743" />
      </g>
      <g clip-path="url(#b)">
        <path d="M13.006 8.464c-.008 0-.01-.002-.012-.002a.714.714 0 0 1-.03-.018l-.043-.031-.021-.017c-.19-.15-.3-.353-.31-.385l.211-.222c.059 0 .358.17.612.316.031.018.059.033.06.043a2.25 2.25 0 0 1-.17.215c-.004.001-.23.1-.297.1" fill="#efecec" />
      </g>
      <g clip-path="url(#b)">
        <path d="M12.805 7.798c.056.002.371.18.604.315l.01.005c.014.009.039.022.045.03-.046.06-.147.195-.165.208h-.001c-.063.027-.238.099-.292.099h-.007l-.006-.005a.259.259 0 0 1-.025-.015l-.008-.006-.005-.003-.003-.002-.005-.003-.007-.006-.003-.002a.1.1 0 0 0-.01-.007l-.011-.009-.005-.004-.006-.004a1.12 1.12 0 0 1-.303-.372zm-.001-.017c-.004 0-.007 0-.01.002l-.212.23a1.103 1.103 0 0 0 .318.394l.015.012c.003.002.008.005.01.008l.012.008.009.005.007.006.007.005.024.015.006.003a.033.033 0 0 0 .016.003c.07 0 .299-.1.299-.1.01 0 .072-.08.175-.216.013-.018-.026-.038-.062-.058-.375-.217-.567-.317-.614-.317" fill="#3f4743" />
      </g>
      <g clip-path="url(#b)">
        <path d="M12.747 7.871c.013.022.01.045-.007.051l-.051.021c-.017.007-.042-.003-.055-.025l-.17-.276c-.012-.021-.008-.044.009-.05l.05-.021c.018-.007.042.003.054.025z" fill="#3f4743" />
      </g>
      <g transform="rotate(-48.891 13.875 13.135)" clip-path="url(#b)">
        <path d="M13.738 15.28v-4.294h.27v4.293z" fill="#1a1818" />
      </g>
      <g clip-path="url(#b)">
        <path d="M12.568 12.176c-.015.018-.084-.018-.153-.078l-2.96-2.584c-.07-.06-.114-.124-.099-.141l.18-.206c.015-.018.085.017.153.078l2.961 2.583c.07.06.114.124.099.142z" fill="#eb3c1a" />
      </g>
      <g clip-path="url(#b)">
        <path d="M12.427 12.075a.277.277 0 0 0 .148-.15.258.258 0 0 0-.15-.342l-1.553-.567.17-1.809a.26.26 0 0 0-.247-.282.279.279 0 0 0-.296.248l-.206 2.203 1.928.705c.07.025.143.02.206-.006" fill="#fbcf98" />
      </g>
      <g clip-path="url(#b)">
        <path d="m10.375 9.166-.128 2.01v.019c-.01.142.08.265.21.308l1.316.438c.153.05.322-.03.38-.18a.28.28 0 0 0-.16-.36l-1.285-.512.209.328.249-2.002a.378.378 0 0 0-.347-.42.407.407 0 0 0-.441.349c-.001.006-.003.014-.003.022" fill="#4d4d4d" />
      </g>
      <g clip-path="url(#b)">
        <path d="M13.674 14.972s4.511.041 5.071-.041c0 0 .235.064.235-.188 0 0-2.03-2.39-2.39-2.287 0 0-.168-.102-.472.168 0 0-2.471 1.91-2.576 2.161 0 0-.2.184.132.187" fill="#1a1818" />
      </g>
    </g>
  </g>
</svg>