<svg width="26" height="34" xmlns="http://www.w3.org/2000/svg">
  <defs>
    <filter id="a" width="45.1" height="55" x="-9.5" y="-11.13" filterUnits="userSpaceOnUse">
      <feOffset dy="1" result="FeOffset1122Out" in="SourceGraphic" />
      <feGaussianBlur stdDeviation="0.8 0.8" result="FeGaussianBlur1123Out" in="FeOffset1122Out" />
    </filter>
  </defs>
  <g filter="url(#a)">
    <path d="M23.597 12.258c0 7.504-10.548 18.613-10.548 18.613S2.5 19.762 2.5 12.258C2.5 4.755 7.223.871 13.049.871c5.825 0 10.548 3.884 10.548 11.387" fill="none" stroke="#000" stroke-opacity=".16" stroke-width=".5" />
  </g>
  <path d="M23.597 12.258c0 7.504-10.548 18.613-10.548 18.613S2.5 19.762 2.5 12.258C2.5 4.755 7.223.871 13.049.871c5.825 0 10.548 3.884 10.548 11.387" fill="#fff" />
  <path d="M23.597 12.258c0 7.504-10.548 18.613-10.548 18.613S2.5 19.762 2.5 12.258C2.5 4.755 7.223.871 13.049.871c5.825 0 10.548 3.884 10.548 11.387" fill="none" stroke="#8c9ca7" stroke-miterlimit="20" stroke-width=".5" />
  <path d="M13.048 3.605a8.365 8.365 0 0 0 0 16.73 8.365 8.365 0 1 0 0-16.73" fill="#dde1e3" />
  <text x="50%" y="40%" dominant-baseline="middle" text-anchor="middle" style="fill:#344869;fill-opacity:1;font-size:14px;font-family:ui-sans-serif,system-ui,-apple-system,BlinkMacSystemFont,'Segoe UI',Roboto,'Helvetica Neue',Arial,'Noto Sans',sans-serif,'Apple Color Emoji','Segoe UI Emoji','Segoe UI Symbol','Noto Color Emoji';font-weight:700;font-style:none;line-height:25px;font-kerning:normal">
    L
  </text>
</svg>