<svg width="26" height="35" xmlns="http://www.w3.org/2000/svg">
  <defs>
    <filter id="a" width="45.09" height="55" x="-9.79" y="-10.44" filterUnits="userSpaceOnUse">
      <feOffset dy="1" result="FeOffset1160Out" in="SourceGraphic" />
      <feGaussianBlur stdDeviation="0.8 0.8" result="FeGaussianBlur1161Out" in="FeOffset1160Out" />
    </filter>
  </defs>
  <g filter="url(#a)">
    <path d="M23.302 12.95c0 7.503-10.548 18.612-10.548 18.612S2.206 20.453 2.206 12.95c0-7.504 4.722-11.387 10.548-11.387S23.302 5.446 23.302 12.95" fill="none" stroke="#000" stroke-opacity=".16" stroke-width=".5" />
  </g>
  <path d="M23.302 12.95c0 7.503-10.548 18.612-10.548 18.612S2.206 20.453 2.206 12.95c0-7.504 4.722-11.387 10.548-11.387S23.302 5.446 23.302 12.95" fill="#d13b3b" />
  <path d="M23.302 12.95c0 7.503-10.548 18.612-10.548 18.612S2.206 20.453 2.206 12.95c0-7.504 4.722-11.387 10.548-11.387S23.302 5.446 23.302 12.95" fill="none" stroke="#fff" stroke-miterlimit="20" stroke-width=".5" />
  <path d="M20.846 12.258a8.091 8.091 0 1 1-16.182 0 8.091 8.091 0 0 1 16.182 0" fill="#fff" />
  <path d="m10.063 9.933 5.962-.037s.184.11.258.276v5.962s-.056.369-.332.46h-5.925s-.13.019-.184-.22c-.055-.24 0-5.613 0-5.613s-.018-.626.22-.828" />
  <path d="M16.145 10.003s-.032-.13.078.054c.57.965 2.434 4.224 2.327 4.334 0 0 .528 1.815-.929 2.076l-1.67.128-1.548-3.773z" />
  <path d="m15.852 15.141-.13-1.852s.12-.053.215.596c0 0 .302.86-.085 1.256" fill="#0063b0" />
  <path d="m15.852 15.141-.13-1.852s.12-.053.215.596c0 0 .302.86-.085 1.256z" fill="none" stroke="#0063b0" stroke-miterlimit="20" stroke-width=".21" />
  <path d="M10.062 9.933s-3.902 4.84-3.787 4.971c0 0-.48 1.815.843 2.077l.978.037 1.943-3.683z" />
  <path d="m8.37 14.349 4.195.865-1.215 2.171-3.349-.11z" fill="#ffa02f" />
  <path d="M12.977 14.54s.257-.541.625-.676c0 0 .233-.11.38 0 0 0 .491.099.43.54 0 0-.024.197-.098.356l-2.318 3.644-1.105-.749z" fill="#eb3e16" />
  <path d="M14.092 13.704s.258-.45.553-.703c0 0 .27-.225.736.014l.54.41-.172.266s-.515-.385-.589-.411c0 0-.135-.067-.282-.014 0 0-.313.139-.399.311l-.24.392-.232-.092z" fill="#a9261d" />
  <g>
    <path d="M15.793 13.186s.362-.308.921-.321c0 0 1.538.111 3.2 1.872l-1.006-.126 1.621 1.607s-1.817-.321-2.152-.517l.629.838s-3.228-.586-3.647-2.473c0 0 .084-.614.434-.88" fill="#fff" />
  </g>
  <g>
    <path d="M15.786 13.375s.245-.208.622-.217c0 0 1.038.076 2.159 1.263l-.679-.085 1.094 1.084s-1.226-.217-1.452-.348l.424.565s-2.177-.396-2.46-1.668c0 0 .057-.415.292-.594" fill="#ffab06" />
  </g>
  <g>
    <path d="m11.112 17.79.662.45s-.37.606-.5.544c0 0-.26-.126-.457-.314 0 0-.032-.303.295-.68" fill="#2c414a" />
  </g>
  <g>
    <path d="M11.068 20.03s-.21-.113-.326-.414c0 0 .135-.488.403-.751l.096-.113-.387-.243s-.38.62-.457.863c0 0-.173.357.038.62l.365.376z" fill="#1d282f" />
  </g>
  <g>
    <path d="M9.455 8.313V6.768h7.232v1.545z" fill="#181919" />
  </g>
  <g>
    <path d="M10.756 5.044s0-.07.252-.115h4.197s.62.068.85.757V9.47s-.712 3.28-2.96 3.257c0 0-1.95.46-2.96-3.073l-.09-3.808s.183-.619.71-.802" />
  </g>
  <g>
    <path d="M11.223 5.81s0-.055.202-.091h3.368s.497.055.681.607v3.036s-.57 2.632-2.374 2.613c0 0-1.564.368-2.374-2.466l-.073-3.055s.147-.496.57-.644" fill="#fcab66" />
  </g>
  <g>
    <path d="M11.37 8.958V7.137h3.458v1.821z" fill="#04223f" />
  </g>
  <g>
    <path d="m11.351 8.958 3.478-1.818v.929l-1.799.87z" fill="#11465a" />
  </g>
  <g>
    <path d="M12.771 14.686s.578-.115.746-.084c0 0 .388.115.41.347 0 0 .073.178-.106.189l-.535.063-.19-.032-.388-.21-.252-.157z" fill="#f27f0e" />
  </g>
  <g>
    <path d="m8.204 15.583 3.606.423-.404 1.399L8 17.276z" fill="#fc842c" />
  </g>
  <g>
    <path d="m10.65 16.357.865-1.251s.221-.424.773-.332c0 0 .644.147.81.313 0 0 .552.387.626.478.073.092.073.58-.304.452l-.736-.424s-.138.018-.129.101l.92.764s.101.543-.432.331l-.81-.515s-.193.101-.147.166l.892.662s.12.359-.211.451c0 0-.13.055-.23-.028l-.773-.524s-.276-.037-.147.184l.717.533s.13.304-.027.442c0 0-.166.258-.479-.064 0 0-1.049-.589-1.196-1.095 0 0-.147-.221.018-.644" fill="#ffab06" />
  </g>
</svg>