<svg width="26" height="35" xmlns="http://www.w3.org/2000/svg">
  <defs>
    <clipPath id="b">
      <path d="M7.286 19.742V5.23h11.577v14.512z" />
    </clipPath>
    <filter id="a" width="45.1" height="55" x="-9.42" y="-10.17" filterUnits="userSpaceOnUse">
      <feOffset dy="1" result="FeOffset4773Out" in="SourceGraphic" />
      <feGaussianBlur stdDeviation="0.8 0.8" result="FeGaussianBlur4774Out" in="FeOffset4773Out" />
    </filter>
  </defs>
  <g filter="url(#a)">
    <path d="M23.676 13.22c0 7.503-10.548 18.612-10.548 18.612S2.58 20.723 2.58 13.219c0-7.503 4.723-11.387 10.548-11.387 5.826 0 10.548 3.884 10.548 11.387" fill="none" stroke="#000" stroke-opacity=".16" stroke-width=".5" />
  </g>
  <path d="M23.676 13.22c0 7.503-10.548 18.612-10.548 18.612S2.58 20.723 2.58 13.219c0-7.503 4.723-11.387 10.548-11.387 5.826 0 10.548 3.884 10.548 11.387" fill="#3a9bed" />
  <path d="M23.676 13.22c0 7.503-10.548 18.612-10.548 18.612S2.58 20.723 2.58 13.219c0-7.503 4.723-11.387 10.548-11.387 5.826 0 10.548 3.884 10.548 11.387" fill="none" stroke="#fff" stroke-miterlimit="20" stroke-width=".5" />
  <g>
    <path d="M13.184 4.598a8.337 8.337 0 1 0 0 16.675 8.337 8.337 0 0 0 0-16.675" fill="#fff" />
    <g>
      <path d="M13.184 4.598a8.337 8.337 0 1 0 0 16.675 8.337 8.337 0 0 0 0-16.675z" fill="none" stroke="#fff" stroke-miterlimit="20" stroke-width=".373" />
    </g>
  </g>
  <g>
    <g clip-path="url(#b)">
      <path d="M14.078 8.673s2.357.496 3.536 4.962l-2.668 1.117s-.505-1.794-.806-2.295c-.372-.62-1.24-1.737-1.613-1.737-.29 0 .522-1.219 1.024-1.768.142-.156.527-.279.527-.279" fill="#747474" />
    </g>
    <g clip-path="url(#b)">
      <path d="m14.926 14.794-.01-.034c-.004-.018-.507-1.795-.802-2.287-.412-.686-1.254-1.722-1.587-1.722-.039 0-.068-.018-.082-.05-.099-.224.664-1.311 1.083-1.77.146-.16.525-.282.54-.288l.008-.002.008.002c.025.005.607.133 1.341.814.675.625 1.608 1.856 2.219 4.17l.006.026zm-.847-6.089c-.055.019-.381.132-.505.268-.57.624-1.134 1.562-1.072 1.703.002.005.005.013.025.013.392 0 1.262 1.123 1.64 1.752.28.467.727 2.012.8 2.269l2.61-1.093c-1.128-4.242-3.348-4.874-3.498-4.912" fill="#f9f2f6" />
    </g>
    <g clip-path="url(#b)">
      <path d="M10.946 11.123s2.388.775 3.07 4.621l2.109 1.055v-1.336l-1.179-.711s-.718-3.33-2.406-4.022z" fill="#747474" />
    </g>
    <g clip-path="url(#b)">
      <path d="M10.94 11.123c.527-.135 1.058-.293 1.59-.43l.013-.004.012.005c1.387.574 2.127 2.682 2.449 4.045l-.027-.038 1.172.722.023.014v.026l-.02 1.336-.001.043-.038-.02a81.754 81.754 0 0 0-2.11-1.051l-.013-.007-.003-.015c-.363-1.838-1.268-3.797-3.047-4.626m.012 0c.002-.008.01 0 .017.001l.064.023c.875.359 1.565 1.071 2.056 1.865.513.825.803 1.773.956 2.727l-.016-.021c.348.183.7.357 1.05.537.352.173.704.35 1.058.52l-.038.024-.02-1.336.022.04-1.185-.701-.02-.013c-.094-.396-.214-.79-.352-1.174-.38-1.035-.965-2.365-2.019-2.848l.025.001c-.53.124-1.063.228-1.598.355" fill="#fff" />
    </g>
    <g clip-path="url(#b)">
      <path d="m16.125 15.463 2.667-.96v1.267l-2.667 1.029z" fill="#747474" />
    </g>
    <g clip-path="url(#b)">
      <path d="M18.73 14.592v1.135l-2.543.981v-1.202zm.084 1.236.04-.016v-1.397l-2.791 1.004v1.47z" fill="#fff" />
    </g>
    <g clip-path="url(#b)">
      <path d="M12.9 10.648V8.673v1.799" fill="#ba749b" />
    </g>
    <g clip-path="url(#b)">
      <path d="M12.093 7.99V5.917l.387-.492s.11-.163.171-.163h1.179l.186.187.31.372v2.109l-.558.496v2.295s-.372.072-.682 0c-.31-.073-.31-.062-.31-.062V8.425z" fill="#747474" />
    </g>
    <g clip-path="url(#b)">
      <path d="M12.807 10.63c.041.005.122.021.286.06.254.06.556.018.644.004V8.41l.558-.496V5.83l-.303-.364-.175-.175h-1.166c-.024 0-.092.07-.146.15l-.38.485v2.047l.682.434zm.595.153a1.44 1.44 0 0 1-.323-.033 2.429 2.429 0 0 0-.3-.062v-.03h-.034V8.442l-.683-.434V5.905l.393-.5c.027-.04.124-.175.196-.175h1.192l.195.196.32.382v2.135l-.559.496v2.306l-.025.005c-.01.002-.173.033-.372.033" fill="#f9f2f6" />
    </g>
    <g clip-path="url(#b)">
      <path d="m12.126 6.867 1.105.338V6.23l-1.105-.345z" fill="#cecece" />
    </g>
    <g clip-path="url(#b)">
      <path d="M13.406 6.227v.978l.872-.538v-.922z" fill="#cecece" />
    </g>
    <g clip-path="url(#b)">
      <path d="M13.706 5.696c0 .137-.236.248-.527.248-.291 0-.528-.111-.528-.248s.237-.248.528-.248c.29 0 .527.11.527.248" fill="#898989" />
    </g>
    <g clip-path="url(#b)">
      <path d="m14.946 14.752 2.65-.988 1.196.74-2.667.959z" fill="#cccacb" />
    </g>
    <g clip-path="url(#b)">
      <path d="m17.592 13.799 1.13.697-2.594.932-1.11-.67zm1.271.712-1.264-.78-2.724 1.014 1.247.752z" fill="#fff" />
    </g>
    <g clip-path="url(#b)">
      <path d="m16 13.945.435.31h.92l.424-.38v.629l-.475.434h-.932l-.371-.27z" fill="#bcbcbc" />
    </g>
    <g clip-path="url(#b)">
      <path d="M16.032 14.652v-.646l.393.28h.942l.38-.341v.545l-.456.417h-.909zm1.778-.135v-.71l-.466.417h-.899l-.475-.339v.799l.392.285h.954z" fill="#fff" />
    </g>
    <g clip-path="url(#b)">
      <path d="M16.56 13.573h.72l.499.303-.424.38h-.92l-.434-.31z" fill="#cccacb" />
    </g>
    <g clip-path="url(#b)">
      <path d="m16.056 13.946.513-.342h.703l.455.276-.383.344h-.899zm1.775-.075-.542-.329h-.74l-.603.402.48.342h.941z" fill="#fff" />
    </g>
    <g clip-path="url(#b)">
      <path d="M18.792 15.77v1.208l-2.791 1.093-.954-.528s-.138 1.731-1.205 2.044c-1.066.313-2.369-.121-3.61-2.168-1.24-2.047-1.098-3.164-1.098-3.164l-1.073-.62V12.52l5.955 3.225 2.109 1.055z" fill="#747474" />
    </g>
    <g clip-path="url(#b)">
      <path d="m8.123 13.6 1.077.622-.005.041c-.001.011-.121 1.125 1.09 3.124 1.352 2.23 2.671 2.395 3.54 2.14 1.013-.297 1.158-1.972 1.16-1.99l.007-.095 1.013.56 2.725-1.066V15.86l-2.608 1.006-2.134-1.066-5.865-3.177zm5.083 6.142c-.854 0-1.936-.49-3.027-2.291-1.12-1.849-1.124-2.938-1.11-3.162l-1.07-.618v-1.256l6.047 3.275 2.082 1.04 2.726-1.05v1.34l-2.858 1.12-.898-.498a4.09 4.09 0 0 1-.195.826c-.227.637-.587 1.045-1.043 1.179a2.316 2.316 0 0 1-.653.095" fill="#fff" />
    </g>
    <g clip-path="url(#b)">
      <path d="m12.711 8.96-.348.08a.028.028 0 0 0-.022.027v.107l.003.012.217.473.001.003a.3.3 0 0 1-.082.297c-.134.136-.34.098-.353.095h-.001c-.018-.005-.324-.097-.425-.393-.083-.245-.18-.334-.215-.36a.028.028 0 0 0-.026-.003l-.764.294a.028.028 0 0 0-.014.04l.291.523c.003.005.004.01.003.015-.002.053-.027.356-.31.39-.31.036-.558-.212-.558-.274 0-.053-.164-.39-.21-.485a.028.028 0 0 0-.038-.012l-.242.122a.027.027 0 0 0-.01.007c-.042.055-.437.574-.554.926a5.311 5.311 0 0 0-.183.785c-.002.011-.01.02-.02.023-.1.016-.042.175-.346-.002a1.826 1.826 0 0 1-.396-.3c-.017-.017-.048-.005-.048.02v1.132c0 .01.006.02.015.025l1.424.771c.02.01.044-.005.041-.027-.031-.287-.134-1.654.753-1.93a40.63 40.63 0 0 1 2.237-.609.028.028 0 0 0 .015-.009l.223-.265a.028.028 0 0 0 .006-.018l-.03-1.454a.028.028 0 0 0-.034-.026" fill="#747474" />
    </g>
    <g clip-path="url(#b)">
      <path d="M8.092 11.378v1.124l1.423.769c-.035-.275-.142-1.675.77-1.96a40.657 40.657 0 0 1 2.24-.609l.22-.264-.03-1.447-.345.08.002.103.22.478a.33.33 0 0 1-.09.328c-.147.15-.372.107-.38.105-.019-.005-.343-.101-.45-.414-.082-.241-.177-.324-.204-.344l-.76.294.292.519c.005.01.008.02.007.031-.007.176-.1.392-.337.42a.666.666 0 0 1-.498-.168c-.023-.02-.095-.088-.095-.137 0-.027-.065-.183-.207-.471l-.238.123c-.043.056-.433.568-.549.916a5.245 5.245 0 0 0-.181.78.057.057 0 0 1-.046.048c-.019.003-.028.013-.043.03-.052.06-.105.092-.323-.035a1.867 1.867 0 0 1-.398-.299m1.422 1.955a.06.06 0 0 1-.028-.008l-1.425-.771a.059.059 0 0 1-.03-.052V11.37a.059.059 0 0 1 .1-.04c.055.057.18.171.39.293.19.111.217.08.245.049.017-.02.038-.044.08-.05.01-.101.071-.465.178-.788.12-.357.515-.877.56-.935a.056.056 0 0 1 .02-.016l.242-.122a.059.059 0 0 1 .08.026c.097.199.213.446.213.499.001.01.027.054.099.111.06.048.22.156.425.132.256-.03.28-.306.282-.36l-.29-.523a.059.059 0 0 1 .03-.083l.764-.294a.06.06 0 0 1 .056.008c.039.029.14.122.226.374.096.283.39.37.403.373.007.002.2.039.323-.087a.268.268 0 0 0 .076-.266l-.217-.472a.057.057 0 0 1-.006-.025v-.107c0-.027.019-.05.046-.057l.348-.08a.058.058 0 0 1 .072.056l.03 1.453a.058.058 0 0 1-.014.04l-.222.264a.058.058 0 0 1-.031.02c-.13.03-1.299.314-2.235.607-.866.27-.762 1.628-.732 1.898a.058.058 0 0 1-.058.065" fill="#f9f2f6" />
    </g>
    <g clip-path="url(#b)">
      <path d="m14.1 19.475 2.521-1.064s.745-.01.993-.253.397-.491.26-.615l-.136-.124L16 18.07l-.954-.528s.024 1.178-.947 1.932" fill="#747474" />
    </g>
    <g clip-path="url(#b)">
      <path d="m15.998 18.105 1.733-.65.123.11a.123.123 0 0 1 .041.095c.002.113-.105.282-.303.476-.236.232-.964.244-.971.244h-.006l-2.34.988c.71-.658.792-1.55.802-1.773zm.63.337c.077-.001.763-.021 1.007-.262.15-.145.326-.354.322-.521a.185.185 0 0 0-.062-.139l-.15-.137-1.742.654-.988-.547v.054c0 .011.012 1.172-.934 1.907l-.187.144z" fill="#fff" />
    </g>
    <g clip-path="url(#b)">
      <path d="m14.202 12.022.434-.31.497.186.062.373-.124.31-.497.124-.372-.248z" fill="#898989" />
    </g>
    <g clip-path="url(#b)">
      <path d="m14.96 12.331-.076.188v.062c.006.024-.01-.007-.01.018l.072-.018.086-.214a.46.46 0 0 0-.073-.036" fill="#595959" />
    </g>
    <g clip-path="url(#b)">
      <path d="m15.133 11.898-.497-.186-.434.31v.103l.372-.266.434.163.055.326-.105.26.113-.027.124-.31z" fill="#c6c6c6" />
    </g>
    <g clip-path="url(#b)">
      <path d="M14.326 12.455v-.33l.33-.235-.082-.03-.372.265v.332l.077.05a.276.276 0 0 1 .047-.052" fill="#595959" />
    </g>
    <g clip-path="url(#b)">
      <path d="M14.14 7.308s.178-.083.306-.103c.128-.02.314.103.376.165.062.062.062.435.062.497s-.186.248-.248.248-.372.062-.434 0-.266-.245-.248-.434c.018-.19.062-.249.186-.373" fill="#cccacb" />
    </g>
    <g clip-path="url(#b)">
      <path d="M14.158 7.334c-.115.115-.155.166-.173.35-.016.16.151.323.222.392l.017.017c.036.036.237.01.323 0 .042-.005.072-.01.09-.01.044 0 .216-.172.216-.216 0-.311-.028-.45-.053-.475-.063-.064-.24-.175-.349-.157-.11.018-.264.086-.293.1m.17.838c-.068 0-.12-.01-.148-.036l-.016-.016c-.078-.076-.26-.253-.24-.443.018-.199.068-.265.194-.392l.009-.006c.007-.003.184-.085.315-.106.15-.023.347.12.402.174.048.048.071.222.071.519 0 .078-.2.279-.279.279a.973.973 0 0 0-.081.008 1.96 1.96 0 0 1-.228.02" fill="#fff" />
    </g>
    <g clip-path="url(#b)">
      <path d="m9.885 9.776.782-.173.31.559s-.047.69-.768.252z" fill="#cccacb" />
    </g>
    <g clip-path="url(#b)">
      <path d="M10.233 10.392c.224.134.4.17.525.105.15-.078.182-.284.187-.329l-.294-.53-.72.16zm.389.198c-.121 0-.264-.05-.429-.15l-.008-.004-.346-.682.843-.186.326.587v.009c-.001.011-.022.285-.222.388a.352.352 0 0 1-.164.038" fill="#fff" />
    </g>
    <g clip-path="url(#b)">
      <path d="m11.498 9.28.781-.173.31.558s-.046.69-.767.253z" fill="#cccacb" />
    </g>
    <g clip-path="url(#b)">
      <path d="M11.845 9.896c.224.134.4.17.526.105.15-.078.182-.284.187-.329l-.295-.53-.72.16zm.39.198c-.121 0-.265-.05-.43-.15l-.007-.004-.346-.682.843-.186.326.586v.01c-.001.011-.022.285-.222.388a.352.352 0 0 1-.165.038" fill="#fff" />
    </g>
    <g clip-path="url(#b)">
      <path d="m8.061 11.297.869-.391.077.091-.14.653s-.106.124-.239.062c-.132-.062-.262-.12-.352-.215z" fill="#cccacb" />
    </g>
    <g clip-path="url(#b)">
      <path d="m8.117 11.306.18.169c.082.087.2.142.323.2l.021.01c.096.044.177-.028.198-.05l.134-.63-.052-.061zm.586.454a.207.207 0 0 1-.088-.02l-.021-.01c-.13-.06-.251-.117-.34-.211l-.248-.231.932-.42.102.121-.144.675-.005.007a.265.265 0 0 1-.188.09" fill="#fff" />
    </g>
    <g clip-path="url(#b)">
      <path d="M10.48 11.278s.436-.331 1.148.207c.713.537 1.4 1.24 1.77 2.191.37.952.804 2.502.494 3.309-.31.806-.39 1.415-1.653 1.08-1.262-.336-2.572-2.93-2.661-4.3-.09-1.37-.028-2.053.903-2.487" fill="#747474" />
    </g>
    <g clip-path="url(#b)">
      <path d="M10.85 11.207a.609.609 0 0 0-.35.096l-.006.003c-.915.427-.973 1.109-.885 2.456.089 1.367 1.4 3.943 2.638 4.272 1.118.297 1.283-.155 1.534-.84l.082-.22c.288-.748-.067-2.188-.494-3.287-.316-.81-.891-1.523-1.76-2.178-.314-.237-.571-.302-.758-.302m1.994 6.982c-.168 0-.37-.03-.614-.095-1.26-.335-2.594-2.944-2.684-4.328-.09-1.375-.029-2.072.918-2.515.043-.03.48-.32 1.182.209.878.662 1.46 1.383 1.78 2.205.431 1.11.788 2.567.494 3.33l-.082.22c-.2.547-.357.974-.994.974" fill="#f9f2f6" />
    </g>
    <g clip-path="url(#b)">
      <path d="m11.58 16.735.079-.185.238-.175.57.36.309.814-.295.614-.355-.138z" fill="#bcbcbc" />
    </g>
    <g clip-path="url(#b)">
      <path d="m11.613 16.735.071-.165.214-.158.544.344.3.792-.277.576L12.15 18zm1.196.816-.316-.836-.597-.378-.262.193-.088.205.556 1.314.394.154z" fill="#fff" />
    </g>
    <g clip-path="url(#b)">
      <path d="m12.604 16.06-.707.315.57.36.309.814-.218.583.869-.217.124-.59-.322-.84z" fill="#d3d3d3" />
    </g>
    <g clip-path="url(#b)">
      <path d="m12.6 16.096.604.41.315.822-.118.562-.793.198.2-.539-.315-.834-.53-.336zm.853 1.844.13-.617-.328-.857-.648-.44-.776.344.61.386.301.793-.233.628z" fill="#fff" />
    </g>
    <g clip-path="url(#b)">
      <path d="M11.897 16.846s-.175.018-.237.078c-.063.06-.197.252-.197.252s-.01.1 0 .233c.01.134.074.337.074.337s.102.158.36.195c.258.036.468-.123.468-.123l.061-.151-.209-.729z" fill="#cccacb" />
    </g>
    <g clip-path="url(#b)">
      <path d="M11.565 17.732a.5.5 0 0 0 .336.178.661.661 0 0 0 .438-.112l.054-.133-.2-.702-.299-.086c-.05.006-.17.028-.213.07a2.457 2.457 0 0 0-.187.24 1.573 1.573 0 0 0 0 .22c.009.118.062.295.071.325m.41.245a.593.593 0 0 1-.083-.006c-.269-.038-.377-.202-.381-.209l-.004-.007a1.898 1.898 0 0 1-.075-.343c-.01-.135 0-.235 0-.239l.001-.008.005-.007c.005-.008.136-.194.2-.256.068-.066.237-.085.256-.087h.006l.342.098.217.756-.069.169-.007.005a.734.734 0 0 1-.407.134" fill="#fff" />
    </g>
    <g clip-path="url(#b)">
      <path d="m9.222 12.021.08-.185.238-.175.57.36.308.814-.294.614-.355-.138z" fill="#bcbcbc" />
    </g>
    <g clip-path="url(#b)">
      <path d="m9.256 12.021.071-.165.214-.158.544.344.3.792-.277.576-.316-.123zm1.196.816L10.136 12l-.597-.378-.262.193-.088.205.556 1.314.394.153z" fill="#fff" />
    </g>
    <g clip-path="url(#b)">
      <path d="m10.247 11.347-.707.314.57.36.308.814-.294.614.946-.248.124-.59-.322-.84z" fill="#d3d3d3" />
    </g>
    <g clip-path="url(#b)">
      <path d="m10.244 11.382.603.41.315.822-.119.562-.862.226.271-.565-.316-.836-.53-.336zm.852 1.844.13-.617-.328-.857-.648-.44-.776.344.61.386.3.792-.317.662z" fill="#fff" />
    </g>
    <g clip-path="url(#b)">
      <path d="M9.54 12.132s-.175.018-.237.078c-.063.06-.197.252-.197.252s-.01.1 0 .233c.01.134.074.336.074.336s.102.159.36.195c.258.037.468-.122.468-.122l.061-.151-.209-.729z" fill="#cccacb" />
    </g>
    <g clip-path="url(#b)">
      <path d="M9.208 13.018a.5.5 0 0 0 .336.178.661.661 0 0 0 .438-.112l.054-.133-.2-.702-.299-.086c-.05.006-.17.028-.213.07a2.457 2.457 0 0 0-.187.24 1.572 1.572 0 0 0 0 .22c.009.118.062.294.071.325m.41.245a.593.593 0 0 1-.083-.006c-.269-.038-.377-.202-.381-.209l-.004-.007a1.896 1.896 0 0 1-.075-.344c-.01-.134 0-.234 0-.238l.001-.008.005-.007c.005-.008.136-.194.2-.256.068-.066.237-.085.256-.087h.006l.342.098.217.756-.069.169-.007.005a.734.734 0 0 1-.407.134" fill="#fff" />
    </g>
    <g clip-path="url(#b)">
      <path d="m10.356 13.883-3.039.993v2.667l4.094-1.427s.5-.868-.154-1.612c-.652-.745-.9-.62-.9-.62" fill="#747474" />
    </g>
    <g clip-path="url(#b)">
      <path d="m10.366 13.913.004-.002c.002 0 .245-.093.864.613.593.676.207 1.47.155 1.567l-4.04 1.408v-2.6zm1.055 2.233.011-.004.006-.01c.005-.01.503-.897-.157-1.649-.634-.723-.898-.646-.936-.629l-3.037.992-.022.007v2.734z" fill="#f9f2f6" />
    </g>
    <g clip-path="url(#b)">
      <path d="m10.667 16.273-.062-.003a2.18 2.18 0 0 0-1.034-1.987l.03-.055a2.242 2.242 0 0 1 1.066 2.045" fill="#fff" />
    </g>
    <g clip-path="url(#b)">
      <path d="m11.132 13.201-.714.682s1.49.497 1.055 2.233l1.193-.055s.28-1.231-.178-2.077c-.457-.845-1.201-.97-1.356-.783" fill="#747474" />
    </g>
    <g clip-path="url(#b)">
      <path d="m11.153 13.223.003-.002c.041-.05.138-.073.257-.061.29.029.738.266 1.048.84.412.762.214 1.859.18 2.03l-1.128.053c.362-1.537-.788-2.107-1.038-2.21zm1.538 2.868.005-.023c.003-.013.277-1.252-.18-2.098-.322-.595-.792-.841-1.097-.872-.14-.013-.254.016-.31.082l-.75.716.05.017c.003 0 .368.125.677.457.414.444.534 1.03.357 1.739l-.01.04z" fill="#f9f2f6" />
    </g>
    <g clip-path="url(#b)">
      <path d="m11.455 13.324.08-.185.238-.176.57.36.308.815-.294.614-.355-.139z" fill="#bcbcbc" />
    </g>
    <g clip-path="url(#b)">
      <path d="m11.49 13.324.07-.165.214-.158.544.343.3.792-.277.576-.316-.123zm1.195.815-.317-.836-.597-.377-.261.193-.088.205.556 1.314.394.153z" fill="#fff" />
    </g>
    <g clip-path="url(#b)">
      <path d="m12.48 12.65-.707.313.57.36.308.815-.294.614.946-.248.124-.59-.322-.84z" fill="#d3d3d3" />
    </g>
    <g clip-path="url(#b)">
      <path d="m12.476 12.685.604.41.315.822-.119.561-.862.227.271-.566-.316-.836-.53-.335zm.853 1.844.13-.617-.328-.858-.648-.44-.776.344.61.386.3.792-.317.663z" fill="#fff" />
    </g>
    <g clip-path="url(#b)">
      <path d="M11.773 13.434s-.175.019-.237.079c-.063.06-.197.251-.197.251s-.01.1 0 .234c.01.133.074.336.074.336s.102.158.36.195c.258.037.468-.122.468-.122l.061-.152-.209-.728z" fill="#cccacb" />
    </g>
    <g clip-path="url(#b)">
      <path d="M11.441 14.32a.5.5 0 0 0 .336.178.662.662 0 0 0 .438-.111l.054-.133-.2-.702-.299-.086c-.05.006-.17.028-.213.07a2.457 2.457 0 0 0-.187.24 1.575 1.575 0 0 0 0 .22c.009.117.062.294.071.324m.41.246a.593.593 0 0 1-.083-.006c-.269-.038-.377-.202-.381-.21l-.004-.007a1.897 1.897 0 0 1-.075-.343c-.01-.135 0-.234 0-.239l.001-.008.005-.006c.005-.008.136-.195.2-.256.068-.066.237-.085.256-.087l.006-.001.342.099.217.755-.069.17-.007.004a.735.735 0 0 1-.407.135" fill="#fff" />
    </g>
    <g clip-path="url(#b)">
      <path d="m15.629 11.592.434-.31.496.186.062.372-.124.31-.496.125-.372-.248z" fill="#898989" />
    </g>
    <g clip-path="url(#b)">
      <path d="m16.56 11.468-.497-.186-.434.31v.103l.372-.266.434.163.054.326-.104.26.112-.027.124-.31z" fill="#c6c6c6" />
    </g>
    <g clip-path="url(#b)">
      <path d="m14.388 12.27.222.218.399-.341v.17l-.373.388-.354-.217z" fill="#fff" />
    </g>
    <g clip-path="url(#b)">
      <path d="m16.386 11.897-.075.187v.063c.006.024-.011-.008-.011.018l.073-.018.086-.214a.459.459 0 0 0-.073-.036" fill="#595959" />
    </g>
    <g clip-path="url(#b)">
      <path d="M15.753 12.02v-.33l.329-.234-.081-.031-.372.266v.331l.076.051a.276.276 0 0 1 .048-.052" fill="#595959" />
    </g>
    <g clip-path="url(#b)">
      <path d="m15.815 11.836.221.217.4-.34v.17l-.373.388-.354-.218z" fill="#fff" />
    </g>
    <g clip-path="url(#b)">
      <path d="M15.982 18.071v-.975h.062v.975z" fill="#fff" />
    </g>
  </g>
</svg>